<svg width="358" height="67" viewBox="0 0 358 67" fill="none" xmlns="http://www.w3.org/2000/svg">
<mask id="path-1-inside-1_1_64" fill="white">
<path d="M3.59998 11H0.900024V0.499977H9.07501V2.59998H3.59998V11ZM9.68402 8.74998H12.384V11H9.68402V8.74998ZM23.935 4.54998H27.535C28.585 4.54998 29.345 4.78998 29.815 5.26998C30.295 5.73998 30.535 6.49998 30.535 7.54998V7.99998C30.535 9.04998 30.295 9.81498 29.815 10.295C29.345 10.765 28.585 11 27.535 11H21.235V0.499977H29.56V2.59998H23.935V4.54998ZM27.835 7.54998C27.835 6.94998 27.535 6.64998 26.935 6.64998H23.935V8.89998H26.935C27.535 8.89998 27.835 8.59998 27.835 7.99998V7.54998ZM41.709 11H33.384V0.499977H41.709V2.59998H36.084V4.62498H40.509V6.72498H36.084V8.89998H41.709V11ZM47.556 8.82498C47.506 9.54498 47.276 10.115 46.866 10.535C46.456 10.945 45.951 11.15 45.351 11.15C44.751 11.15 44.186 11.1 43.656 11V8.97498H44.331C44.521 8.97498 44.676 8.90998 44.796 8.77998C44.926 8.64998 44.996 8.48998 45.006 8.29998L45.456 0.499977H53.781V11H51.081V2.59998H47.931L47.556 8.82498ZM59.783 11H57.083V0.499977H65.258V2.59998H59.783V11ZM74.561 3.34998C74.561 2.74998 74.261 2.44998 73.661 2.44998H71.111C70.511 2.44998 70.211 2.74998 70.211 3.34998V8.14998C70.211 8.74998 70.511 9.04998 71.111 9.04998H73.661C74.261 9.04998 74.561 8.74998 74.561 8.14998V3.34998ZM77.261 8.14998C77.261 9.19998 77.021 9.96498 76.541 10.445C76.071 10.915 75.311 11.15 74.261 11.15H70.511C69.461 11.15 68.696 10.915 68.216 10.445C67.746 9.96498 67.511 9.19998 67.511 8.14998V3.34998C67.511 2.29998 67.746 1.53998 68.216 1.06998C68.696 0.589977 69.461 0.349976 70.511 0.349976H74.261C75.311 0.349976 76.071 0.589977 76.541 1.06998C77.021 1.53998 77.261 2.29998 77.261 3.34998V8.14998ZM80.268 0.499977H86.568C87.618 0.499977 88.378 0.739978 88.848 1.21998C89.328 1.68998 89.568 2.44998 89.568 3.49998V4.99998C89.568 6.04998 89.328 6.81498 88.848 7.29498C88.378 7.76498 87.618 7.99998 86.568 7.99998H82.968V11H80.268V0.499977ZM86.868 3.49998C86.868 2.89998 86.568 2.59998 85.968 2.59998H82.968V5.89998H85.968C86.568 5.89998 86.868 5.59998 86.868 4.99998V3.49998ZM99.168 3.34998C99.168 2.74998 98.868 2.44998 98.268 2.44998H95.718C95.118 2.44998 94.818 2.74998 94.818 3.34998V8.14998C94.818 8.74998 95.118 9.04998 95.718 9.04998H98.268C98.868 9.04998 99.168 8.74998 99.168 8.14998V3.34998ZM101.868 8.14998C101.868 9.19998 101.628 9.96498 101.148 10.445C100.678 10.915 99.918 11.15 98.868 11.15H95.118C94.068 11.15 93.303 10.915 92.823 10.445C92.353 9.96498 92.118 9.19998 92.118 8.14998V3.34998C92.118 2.29998 92.353 1.53998 92.823 1.06998C93.303 0.589977 94.068 0.349976 95.118 0.349976H98.868C99.918 0.349976 100.678 0.589977 101.148 1.06998C101.628 1.53998 101.868 2.29998 101.868 3.34998V8.14998ZM106.082 0.499977H113.957V8.89998H115.082V12.95H112.532L112.382 11H106.532L106.382 12.95H103.832V8.89998H104.807C105.097 8.56998 105.312 8.19998 105.452 7.78998C105.602 7.36998 105.687 6.98998 105.707 6.64998L106.082 0.499977ZM111.257 8.89998V2.59998H108.482L108.257 6.34998C108.227 6.95998 108.077 7.57498 107.807 8.19498C107.697 8.45498 107.572 8.68998 107.432 8.89998H111.257ZM117.336 8.74998H120.036V10.85L118.986 12.5H117.636L118.236 11H117.336V8.74998ZM131.406 11.15C130.906 11.15 130.391 11.1 129.861 11V8.97498H131.211C131.501 8.97498 131.701 8.85998 131.811 8.62998C131.861 8.52998 131.886 8.42498 131.886 8.31498C131.886 8.19498 131.861 8.08998 131.811 7.99998L127.686 0.499977H130.686L133.386 5.82498L135.636 0.499977H138.636L134.811 8.74998C134.461 9.53998 134.041 10.13 133.551 10.52C133.011 10.94 132.296 11.15 131.406 11.15ZM143.29 8.82498C143.24 9.54498 143.01 10.115 142.6 10.535C142.19 10.945 141.69 11.15 141.09 11.15C140.487 11.15 139.922 11.1 139.392 11V8.97498H140.067C140.257 8.97498 140.412 8.90998 140.532 8.77998C140.662 8.64998 140.732 8.48998 140.742 8.29998L141.19 0.499977H149.52V11H146.82V2.59998H143.67L143.29 8.82498ZM152.37 8.74998H155.07V11H152.37V8.74998ZM172.92 5.14998L170.82 8.89998H168.72L166.62 5.14998V11H163.92V0.499977H166.77L169.77 6.04998L172.77 0.499977H175.62V11H172.92V5.14998ZM180.8 11H177.88L181.85 0.499977H184.85L188.83 11H185.9L185.23 9.12498H181.48L180.8 11ZM182.15 7.17498H184.55L183.35 3.64998L182.15 7.17498ZM193.77 11H191.07V0.499977H199.25V2.59998H193.77V11ZM210.95 11H208.25V4.54998L204.65 11H201.8V0.499977H204.5V6.94998L208.1 0.499977H210.95V11ZM222.36 10.85C220.13 11.05 218.28 11.15 216.81 11.15C215.83 11.15 215.11 10.92 214.65 10.46C214.19 9.99998 213.96 9.27998 213.96 8.29998V3.49998C213.96 2.44998 214.2 1.68998 214.67 1.21998C215.15 0.739978 215.91 0.499977 216.96 0.499977H222.36V2.59998H217.56C216.96 2.59998 216.66 2.89998 216.66 3.49998V8.29998C216.66 8.52998 216.73 8.71498 216.86 8.85498C217 8.98498 217.17 9.04998 217.38 9.04998C217.59 9.04998 217.82 9.04998 218.07 9.04998C218.32 9.03998 218.58 9.02998 218.85 9.01998C219.12 9.00998 219.39 8.99998 219.66 8.98998C219.94 8.97998 220.3 8.95998 220.73 8.92998C221.17 8.89998 221.71 8.86498 222.36 8.82498V10.85ZM230.16 11H227.46V2.59998H224.31V0.499977H233.31V2.59998H230.16V11ZM235.86 0.499977H242.16C243.21 0.499977 243.97 0.739978 244.44 1.21998C244.92 1.68998 245.16 2.44998 245.16 3.49998V4.99998C245.16 6.04998 244.92 6.81498 244.44 7.29498C243.97 7.76498 243.21 7.99998 242.16 7.99998H238.56V11H235.86V0.499977ZM242.46 3.49998C242.46 2.89998 242.16 2.59998 241.56 2.59998H238.56V5.89998H241.56C242.16 5.89998 242.46 5.59998 242.46 4.99998V3.49998ZM248.99 11H246.07L250.04 0.499977H253.04L257.02 11H254.09L253.42 9.12498H249.67L248.99 11ZM250.34 7.17498H252.74L251.54 3.64998L250.34 7.17498ZM262.42 8.82498C262.37 9.54498 262.14 10.115 261.73 10.535C261.32 10.945 260.81 11.15 260.21 11.15C259.61 11.15 259.05 11.1 258.52 11V8.97498H259.19C259.38 8.97498 259.54 8.90998 259.66 8.77998C259.79 8.64998 259.86 8.48998 259.87 8.29998L260.32 0.499977H268.64V11H265.94V2.59998H262.79L262.42 8.82498ZM274.65 4.09998H278.25C279.3 4.09998 280.06 4.33998 280.53 4.81998C281.01 5.28998 281.25 6.04998 281.25 7.09998V7.99998C281.25 9.04998 281.01 9.81498 280.53 10.295C280.06 10.765 279.3 11 278.25 11H271.95V0.499977H274.65V4.09998ZM278.55 7.09998C278.55 6.49998 278.25 6.19998 277.65 6.19998H274.65V8.89998H277.65C278.25 8.89998 278.55 8.59998 278.55 7.99998V7.09998ZM293.25 11H290.55V6.72498H286.8V11H284.1V0.499977H286.8V4.62498H290.55V0.499977H293.25V11ZM298.43 11H295.5L299.48 0.499977H302.48L306.45 11H303.53L302.85 9.12498H299.1L298.43 11ZM299.78 7.17498H302.18L300.98 3.64998L299.78 7.17498ZM317.7 11H315V7.54998H312.98L311.1 11H308.25L310.2 7.39998C309.56 7.24998 309.1 6.94498 308.82 6.48498C308.54 6.02498 308.4 5.37998 308.4 4.54998V3.49998C308.4 2.44998 308.64 1.68998 309.11 1.21998C309.59 0.739978 310.35 0.499977 311.4 0.499977H317.7V11ZM311.1 4.54998C311.1 5.14998 311.4 5.44998 312 5.44998H315V2.59998H312C311.4 2.59998 311.1 2.89998 311.1 3.49998V4.54998ZM331.94 11.15C330.27 11.15 328.42 11.05 326.39 10.85V8.82498C328.6 8.97498 330.25 9.04998 331.34 9.04998C331.57 9.04998 331.75 8.98498 331.88 8.85498C332.02 8.71498 332.09 8.52998 332.09 8.29998V7.54998C332.09 6.94998 331.79 6.64998 331.19 6.64998H326.84V0.499977H334.04V2.59998H329.54V4.54998H331.94C332.92 4.54998 333.64 4.77498 334.1 5.22498C334.56 5.66498 334.79 6.33998 334.79 7.24998V8.29998C334.79 9.27998 334.56 9.99998 334.1 10.46C333.64 10.92 332.92 11.15 331.94 11.15ZM342.44 11.15C340.77 11.15 338.92 11.05 336.89 10.85V8.82498C339.1 8.97498 340.75 9.04998 341.84 9.04998C342.07 9.04998 342.25 8.98498 342.38 8.85498C342.52 8.71498 342.59 8.52998 342.59 8.29998V7.54998C342.59 6.94998 342.29 6.64998 341.69 6.64998H337.34V0.499977H344.54V2.59998H340.04V4.54998H342.44C343.42 4.54998 344.14 4.77498 344.6 5.22498C345.06 5.66498 345.29 6.33998 345.29 7.24998V8.29998C345.29 9.27998 345.06 9.99998 344.6 10.46C344.14 10.92 343.42 11.15 342.44 11.15ZM350.68 4.54998H354.28C355.33 4.54998 356.09 4.78998 356.56 5.26998C357.04 5.73998 357.28 6.49998 357.28 7.54998V7.99998C357.28 9.04998 357.04 9.81498 356.56 10.295C356.09 10.765 355.33 11 354.28 11H347.98V0.499977H356.31V2.59998H350.68V4.54998ZM354.58 7.54998C354.58 6.94998 354.28 6.64998 353.68 6.64998H350.68V8.89998H353.68C354.28 8.89998 354.58 8.59998 354.58 7.99998V7.54998ZM3.15002 24.575C3.15002 27.215 3.77502 29.49 5.02502 31.4L3.75 32.45C2.69 31.47 1.87499 30.3 1.30499 28.94C0.734993 27.58 0.450012 26.125 0.450012 24.575C0.450012 23.025 0.734993 21.57 1.30499 20.21C1.87499 18.85 2.69 17.68 3.75 16.7L5.02502 17.75C3.77502 19.66 3.15002 21.935 3.15002 24.575ZM6.67798 26.825C9.22798 26.975 11.028 27.05 12.078 27.05C12.308 27.05 12.488 26.985 12.618 26.855C12.758 26.715 12.828 26.53 12.828 26.3V25.7C12.828 25.1 12.528 24.8 11.928 24.8H8.328V22.7H11.628C12.228 22.7 12.528 22.4 12.528 21.8V21.5C12.528 20.9 12.228 20.6 11.628 20.6H6.828V18.5H12.378C13.358 18.5 14.078 18.725 14.538 19.175C14.998 19.615 15.228 20.29 15.228 21.2C15.228 21.8 15.088 22.29 14.808 22.67C14.538 23.04 14.178 23.3 13.728 23.45C14.538 23.67 15.088 24.21 15.378 25.07C15.478 25.38 15.528 25.74 15.528 26.15V26.3C15.528 27.28 15.298 28 14.838 28.46C14.378 28.92 13.658 29.15 12.678 29.15C11.008 29.15 9.00798 29.05 6.67798 28.85V26.825ZM20.248 29H17.323L21.298 18.5H24.298L28.273 29H25.348L24.673 27.125H20.923L20.248 29ZM21.598 25.175H23.998L22.798 21.65L21.598 25.175ZM38.847 29H30.522V18.5H38.847V20.6H33.222V22.625H37.647V24.725H33.222V26.9H38.847V29ZM40.944 26.825C43.494 26.975 45.294 27.05 46.344 27.05C46.574 27.05 46.754 26.985 46.884 26.855C47.024 26.715 47.094 26.53 47.094 26.3V25.7C47.094 25.1 46.794 24.8 46.194 24.8H42.594V22.7H45.894C46.494 22.7 46.794 22.4 46.794 21.8V21.5C46.794 20.9 46.494 20.6 45.894 20.6H41.094V18.5H46.644C47.624 18.5 48.344 18.725 48.804 19.175C49.264 19.615 49.494 20.29 49.494 21.2C49.494 21.8 49.354 22.29 49.074 22.67C48.804 23.04 48.444 23.3 47.994 23.45C48.804 23.67 49.354 24.21 49.644 25.07C49.744 25.38 49.794 25.74 49.794 26.15V26.3C49.794 27.28 49.564 28 49.104 28.46C48.644 28.92 47.924 29.15 46.944 29.15C45.274 29.15 43.274 29.05 40.944 28.85V26.825ZM53.845 18.5H61.72V26.9H62.845V30.95H60.295L60.145 29H54.295L54.145 30.95H51.595V26.9H52.57C52.86 26.57 53.075 26.2 53.215 25.79C53.365 25.37 53.45 24.99 53.47 24.65L53.845 18.5ZM59.02 26.9V20.6H56.245L56.02 24.35C55.99 24.96 55.84 25.575 55.57 26.195C55.46 26.455 55.335 26.69 55.195 26.9H59.02ZM79.646 28.85C77.416 29.05 75.566 29.15 74.096 29.15C73.116 29.15 72.396 28.92 71.936 28.46C71.476 28 71.246 27.28 71.246 26.3V21.5C71.246 20.45 71.481 19.69 71.951 19.22C72.431 18.74 73.196 18.5 74.246 18.5H79.646V20.6H74.846C74.246 20.6 73.946 20.9 73.946 21.5V26.3C73.946 26.53 74.011 26.715 74.141 26.855C74.281 26.985 74.456 27.05 74.666 27.05C74.876 27.05 75.106 27.05 75.356 27.05C75.606 27.04 75.866 27.03 76.136 27.02C76.406 27.01 76.676 27 76.946 26.99C77.226 26.98 77.581 26.96 78.011 26.93C78.451 26.9 78.996 26.865 79.646 26.825V28.85ZM90.865 29.15C90.365 29.15 89.85 29.1 89.32 29V26.975H90.67C90.96 26.975 91.16 26.86 91.27 26.63C91.32 26.53 91.345 26.425 91.345 26.315C91.345 26.195 91.32 26.09 91.27 26L87.145 18.5H90.145L92.845 23.825L95.095 18.5H98.095L94.27 26.75C93.92 27.54 93.5 28.13 93.01 28.52C92.47 28.94 91.755 29.15 90.865 29.15ZM102.751 26.825C102.701 27.545 102.471 28.115 102.061 28.535C101.651 28.945 101.146 29.15 100.546 29.15C99.946 29.15 99.381 29.1 98.851 29V26.975H99.526C99.716 26.975 99.871 26.91 99.991 26.78C100.121 26.65 100.191 26.49 100.201 26.3L100.651 18.5H108.976V29H106.276V20.6H103.126L102.751 26.825ZM111.828 26.75H114.528V29H111.828V26.75ZM132.379 23.15L130.279 26.9H128.179L126.079 23.15V29H123.379V18.5H126.229L129.229 24.05L132.229 18.5H135.079V29H132.379V23.15ZM145.13 21.35C145.13 20.75 144.83 20.45 144.23 20.45H141.68C141.08 20.45 140.784 20.75 140.784 21.35V26.15C140.784 26.75 141.08 27.05 141.68 27.05H144.23C144.83 27.05 145.13 26.75 145.13 26.15V21.35ZM147.83 26.15C147.83 27.2 147.59 27.965 147.11 28.445C146.64 28.915 145.88 29.15 144.83 29.15H141.08C140.034 29.15 139.269 28.915 138.789 28.445C138.319 27.965 138.084 27.2 138.084 26.15V21.35C138.084 20.3 138.319 19.54 138.789 19.07C139.269 18.59 140.034 18.35 141.08 18.35H144.83C145.88 18.35 146.64 18.59 147.11 19.07C147.59 19.54 147.83 20.3 147.83 21.35V26.15ZM153.99 26.825C153.94 27.545 153.71 28.115 153.3 28.535C152.89 28.945 152.39 29.15 151.79 29.15C151.19 29.15 150.62 29.1 150.09 29V26.975H150.77C150.96 26.975 151.11 26.91 151.23 26.78C151.36 26.65 151.43 26.49 151.44 26.3L151.89 18.5H160.22V29H157.52V20.6H154.37L153.99 26.825ZM170.27 21.35C170.27 20.75 169.97 20.45 169.37 20.45H166.82C166.22 20.45 165.92 20.75 165.92 21.35V26.15C165.92 26.75 166.22 27.05 166.82 27.05H169.37C169.97 27.05 170.27 26.75 170.27 26.15V21.35ZM172.97 26.15C172.97 27.2 172.73 27.965 172.25 28.445C171.78 28.915 171.02 29.15 169.97 29.15H166.22C165.17 29.15 164.4 28.915 163.92 28.445C163.45 27.965 163.22 27.2 163.22 26.15V21.35C163.22 20.3 163.45 19.54 163.92 19.07C164.4 18.59 165.17 18.35 166.22 18.35H169.97C171.02 18.35 171.78 18.59 172.25 19.07C172.73 19.54 172.97 20.3 172.97 21.35V26.15ZM177.18 18.5H185.06V26.9H186.18V30.95H183.63L183.48 29H177.63L177.48 30.95H174.93V26.9H175.91C176.2 26.57 176.41 26.2 176.55 25.79C176.7 25.37 176.79 24.99 176.81 24.65L177.18 18.5ZM182.36 26.9V20.6H179.58L179.36 24.35C179.33 24.96 179.18 25.575 178.91 26.195C178.8 26.455 178.67 26.69 178.53 26.9H182.36ZM197.21 29H188.89V18.5H197.21V20.6H191.59V22.625H196.01V24.725H191.59V26.9H197.21V29ZM212.58 18.35C212.83 18.35 213.28 18.4 213.93 18.5V20.525H213.33C213.18 20.525 213.05 20.575 212.93 20.675C212.81 20.765 212.72 20.865 212.66 20.975L211.23 23.675L214.16 29H211.31L208.98 24.725H207.93V29H205.23V24.725H204.18L201.86 29H199.01L201.93 23.675L200.51 20.975C200.45 20.865 200.36 20.765 200.24 20.675C200.12 20.575 199.98 20.525 199.83 20.525H199.23V18.5C199.88 18.4 200.33 18.35 200.58 18.35C201.11 18.35 201.54 18.485 201.86 18.755C202.19 19.015 202.46 19.355 202.68 19.775L204.18 22.625H205.23V18.5H207.93V22.625H208.98L210.48 19.775C210.7 19.355 210.97 19.015 211.29 18.755C211.62 18.485 212.05 18.35 212.58 18.35ZM225.7 29H223V24.725H219.25V29H216.55V18.5H219.25V22.625H223V18.5H225.7V29ZM230.89 29H227.96L231.94 18.5H234.94L238.91 29H235.99L235.31 27.125H231.56L230.89 29ZM232.24 25.175H234.64L233.44 21.65L232.24 25.175ZM250.16 29H247.46V25.55H245.44L243.56 29H240.71L242.66 25.4C242.02 25.25 241.56 24.945 241.28 24.485C241 24.025 240.86 23.38 240.86 22.55V21.5C240.86 20.45 241.1 19.69 241.57 19.22C242.05 18.74 242.81 18.5 243.86 18.5H250.16V29ZM243.56 22.55C243.56 23.15 243.86 23.45 244.46 23.45H247.46V20.6H244.46C243.86 20.6 243.56 20.9 243.56 21.5V22.55ZM254.28 24.575C254.28 21.935 253.66 19.66 252.41 17.75L253.68 16.7C254.74 17.68 255.56 18.85 256.13 20.21C256.7 21.57 256.98 23.025 256.98 24.575C256.98 26.125 256.7 27.58 256.13 28.94C255.56 30.3 254.74 31.47 253.68 32.45L252.41 31.4C253.66 29.49 254.28 27.215 254.28 24.575ZM10.05 65H7.34998V56.6H3.59998V65H0.900024V54.5H10.05V65ZM22.507 65H19.807V60.725H16.057V65H13.357V54.5H16.057V58.625H19.807V54.5H22.507V65ZM25.364 60.8V58.7H31.514V60.8H25.364ZM43.51 65H40.81V56.6H37.06V65H34.36V54.5H43.51V65ZM51.917 65H49.217V56.6H46.067V54.5H55.067V56.6H51.917V65ZM63.766 62.825C65.826 62.975 67.276 63.05 68.116 63.05C68.346 63.05 68.526 62.985 68.656 62.855C68.796 62.715 68.866 62.53 68.866 62.3V60.95C67.896 61.15 67.046 61.25 66.316 61.25H65.266C64.586 61.25 64.041 61.045 63.631 60.635C63.221 60.225 63.016 59.68 63.016 59V57.05C63.016 56.14 63.246 55.465 63.706 55.025C64.166 54.575 64.886 54.35 65.866 54.35H68.716C69.696 54.35 70.416 54.575 70.876 55.025C71.336 55.465 71.566 56.14 71.566 57.05V62.3C71.566 63.28 71.336 64 70.876 64.46C70.416 64.92 69.696 65.15 68.716 65.15C67.346 65.15 65.696 65.05 63.766 64.85V62.825ZM67.066 59.15C67.636 59.15 68.236 59.1 68.866 59V57.35C68.866 56.75 68.566 56.45 67.966 56.45H66.616C66.016 56.45 65.716 56.75 65.716 57.35V58.625C65.716 58.775 65.766 58.9 65.866 59C65.966 59.1 66.091 59.15 66.241 59.15H67.066ZM74.114 62.75H76.814V65H74.114V62.75ZM74.114 57.05H76.814V59.3H74.114V57.05ZM85.518 57.35C85.518 56.75 85.218 56.45 84.618 56.45H82.968C82.368 56.45 82.068 56.75 82.068 57.35V62.15C82.068 62.75 82.368 63.05 82.968 63.05H84.618C85.218 63.05 85.518 62.75 85.518 62.15V57.35ZM88.218 62.15C88.218 63.2 87.978 63.965 87.498 64.445C87.028 64.915 86.268 65.15 85.218 65.15H82.368C81.318 65.15 80.553 64.915 80.073 64.445C79.603 63.965 79.368 63.2 79.368 62.15V57.35C79.368 56.3 79.603 55.54 80.073 55.07C80.553 54.59 81.318 54.35 82.368 54.35H85.218C86.268 54.35 87.028 54.59 87.498 55.07C87.978 55.54 88.218 56.3 88.218 57.35V62.15ZM97.066 57.35C97.066 56.75 96.766 56.45 96.166 56.45H94.516C93.916 56.45 93.616 56.75 93.616 57.35V62.15C93.616 62.75 93.916 63.05 94.516 63.05H96.166C96.766 63.05 97.066 62.75 97.066 62.15V57.35ZM99.766 62.15C99.766 63.2 99.526 63.965 99.046 64.445C98.576 64.915 97.816 65.15 96.766 65.15H93.916C92.866 65.15 92.101 64.915 91.621 64.445C91.151 63.965 90.916 63.2 90.916 62.15V57.35C90.916 56.3 91.151 55.54 91.621 55.07C92.101 54.59 92.866 54.35 93.916 54.35H96.766C97.816 54.35 98.576 54.59 99.046 55.07C99.526 55.54 99.766 56.3 99.766 57.35V62.15ZM102.315 60.8V58.7H108.465V60.8H102.315ZM112.286 65V56.825L110.561 57.425L109.811 55.7L112.586 54.5H114.986V65H112.286ZM121.44 60.8C120.84 60.8 120.54 61.1 120.54 61.7V62.3C120.54 62.53 120.605 62.715 120.735 62.855C120.875 62.985 121.06 63.05 121.29 63.05H123.54C123.77 63.05 123.95 62.985 124.08 62.855C124.22 62.715 124.29 62.53 124.29 62.3V61.7C124.29 61.1 123.99 60.8 123.39 60.8H121.44ZM121.74 56.45C121.14 56.45 120.84 56.75 120.84 57.35V57.8C120.84 58.4 121.14 58.7 121.74 58.7H123.09C123.69 58.7 123.99 58.4 123.99 57.8V57.35C123.99 56.75 123.69 56.45 123.09 56.45H121.74ZM126.99 62.3C126.99 63.28 126.76 64 126.3 64.46C125.84 64.92 125.12 65.15 124.14 65.15H120.69C119.71 65.15 118.99 64.92 118.53 64.46C118.07 64 117.84 63.28 117.84 62.3V62.15C117.84 61.39 118.03 60.76 118.41 60.26C118.71 59.86 119.12 59.59 119.64 59.45C119.19 59.3 118.825 59.04 118.545 58.67C118.275 58.29 118.14 57.8 118.14 57.2V57.05C118.14 56.14 118.37 55.465 118.83 55.025C119.29 54.575 120.01 54.35 120.99 54.35H123.84C124.82 54.35 125.54 54.575 126 55.025C126.46 55.465 126.69 56.14 126.69 57.05V57.2C126.69 57.8 126.55 58.29 126.27 58.67C126 59.04 125.64 59.3 125.19 59.45C126 59.67 126.55 60.21 126.84 61.07C126.94 61.38 126.99 61.74 126.99 62.15V62.3ZM129.388 62.75H132.088V65H129.388V62.75ZM129.388 57.05H132.088V59.3H129.388V57.05ZM140.792 57.35C140.792 56.75 140.492 56.45 139.892 56.45H138.242C137.642 56.45 137.342 56.75 137.342 57.35V62.15C137.342 62.75 137.642 63.05 138.242 63.05H139.892C140.492 63.05 140.792 62.75 140.792 62.15V57.35ZM143.49 62.15C143.49 63.2 143.25 63.965 142.77 64.445C142.3 64.915 141.54 65.15 140.492 65.15H137.642C136.592 65.15 135.827 64.915 135.347 64.445C134.877 63.965 134.642 63.2 134.642 62.15V57.35C134.642 56.3 134.877 55.54 135.347 55.07C135.827 54.59 136.592 54.35 137.642 54.35H140.492C141.54 54.35 142.3 54.59 142.77 55.07C143.25 55.54 143.49 56.3 143.49 57.35V62.15ZM152.34 57.35C152.34 56.75 152.04 56.45 151.44 56.45H149.79C149.19 56.45 148.89 56.75 148.89 57.35V62.15C148.89 62.75 149.19 63.05 149.79 63.05H151.44C152.04 63.05 152.34 62.75 152.34 62.15V57.35ZM155.04 62.15C155.04 63.2 154.8 63.965 154.32 64.445C153.85 64.915 153.09 65.15 152.04 65.15H149.19C148.14 65.15 147.38 64.915 146.9 64.445C146.43 63.965 146.19 63.2 146.19 62.15V57.35C146.19 56.3 146.43 55.54 146.9 55.07C147.38 54.59 148.14 54.35 149.19 54.35H152.04C153.09 54.35 153.85 54.59 154.32 55.07C154.8 55.54 155.04 56.3 155.04 57.35V62.15ZM157.59 62.75H160.29V64.85L159.24 66.5H157.89L158.49 65H157.59V62.75ZM177.24 64.85C175.01 65.05 173.16 65.15 171.69 65.15C170.71 65.15 169.99 64.92 169.53 64.46C169.07 64 168.84 63.28 168.84 62.3V57.5C168.84 56.45 169.08 55.69 169.55 55.22C170.03 54.74 170.79 54.5 171.84 54.5H177.24V56.6H172.44C171.84 56.6 171.54 56.9 171.54 57.5V62.3C171.54 62.53 171.61 62.715 171.74 62.855C171.88 62.985 172.05 63.05 172.26 63.05C172.47 63.05 172.7 63.05 172.95 63.05C173.2 63.04 173.46 63.03 173.73 63.02C174 63.01 174.27 63 174.54 62.99C174.82 62.98 175.18 62.96 175.61 62.93C176.05 62.9 176.59 62.865 177.24 62.825V64.85ZM182.64 58.55H186.24C187.29 58.55 188.05 58.79 188.52 59.27C189 59.74 189.24 60.5 189.24 61.55V62C189.24 63.05 189 63.815 188.52 64.295C188.05 64.765 187.29 65 186.24 65H179.94V54.5H188.27V56.6H182.64V58.55ZM186.54 61.55C186.54 60.95 186.24 60.65 185.64 60.65H182.64V62.9H185.64C186.24 62.9 186.54 62.6 186.54 62V61.55ZM199.66 65V56.825L197.94 57.425L197.19 55.7L199.96 54.5H202.36V65H199.66ZM211.52 57.35C211.52 56.75 211.22 56.45 210.62 56.45H208.97C208.37 56.45 208.07 56.75 208.07 57.35V62.15C208.07 62.75 208.37 63.05 208.97 63.05H210.62C211.22 63.05 211.52 62.75 211.52 62.15V57.35ZM214.22 62.15C214.22 63.2 213.98 63.965 213.5 64.445C213.03 64.915 212.27 65.15 211.22 65.15H208.37C207.32 65.15 206.55 64.915 206.07 64.445C205.6 63.965 205.37 63.2 205.37 62.15V57.35C205.37 56.3 205.6 55.54 206.07 55.07C206.55 54.59 207.32 54.35 208.37 54.35H211.22C212.27 54.35 213.03 54.59 213.5 55.07C213.98 55.54 214.22 56.3 214.22 57.35V62.15ZM216.77 62.75H219.47V65H216.77V62.75ZM216.77 57.05H219.47V59.3H216.77V57.05ZM228.17 57.35C228.17 56.75 227.87 56.45 227.27 56.45H225.62C225.02 56.45 224.72 56.75 224.72 57.35V62.15C224.72 62.75 225.02 63.05 225.62 63.05H227.27C227.87 63.05 228.17 62.75 228.17 62.15V57.35ZM230.87 62.15C230.87 63.2 230.63 63.965 230.15 64.445C229.68 64.915 228.92 65.15 227.87 65.15H225.02C223.97 65.15 223.2 64.915 222.72 64.445C222.25 63.965 222.02 63.2 222.02 62.15V57.35C222.02 56.3 222.25 55.54 222.72 55.07C223.2 54.59 223.97 54.35 225.02 54.35H227.87C228.92 54.35 229.68 54.59 230.15 55.07C230.63 55.54 230.87 56.3 230.87 57.35V62.15ZM239.72 57.35C239.72 56.75 239.42 56.45 238.82 56.45H237.17C236.57 56.45 236.27 56.75 236.27 57.35V62.15C236.27 62.75 236.57 63.05 237.17 63.05H238.82C239.42 63.05 239.72 62.75 239.72 62.15V57.35ZM242.42 62.15C242.42 63.2 242.18 63.965 241.7 64.445C241.23 64.915 240.47 65.15 239.42 65.15H236.57C235.52 65.15 234.75 64.915 234.27 64.445C233.8 63.965 233.57 63.2 233.57 62.15V57.35C233.57 56.3 233.8 55.54 234.27 55.07C234.75 54.59 235.52 54.35 236.57 54.35H239.42C240.47 54.35 241.23 54.59 241.7 55.07C242.18 55.54 242.42 56.3 242.42 57.35V62.15ZM244.97 60.8V58.7H251.12V60.8H244.97ZM254.94 65V56.825L253.21 57.425L252.46 55.7L255.24 54.5H257.64V65H254.94ZM263.49 54.35C264.86 54.35 266.51 54.45 268.44 54.65V56.675C267.89 56.645 267.42 56.62 267.03 56.6C266.65 56.57 266.34 56.55 266.09 56.54C265.85 56.52 265.61 56.5 265.37 56.48C264.97 56.46 264.6 56.45 264.26 56.45C263.65 56.45 263.34 56.7 263.34 57.2V58.55C264.31 58.35 265.16 58.25 265.89 58.25H266.94C267.62 58.25 268.17 58.455 268.58 58.865C268.99 59.275 269.19 59.82 269.19 60.5V62.45C269.19 63.36 268.96 64.04 268.5 64.49C268.04 64.93 267.32 65.15 266.34 65.15H263.49C262.51 65.15 261.79 64.93 261.33 64.49C260.87 64.04 260.64 63.36 260.64 62.45V57.2C260.64 56.22 260.87 55.5 261.33 55.04C261.79 54.58 262.51 54.35 263.49 54.35ZM265.14 60.35C264.76 60.35 264.41 60.37 264.09 60.41C263.78 60.45 263.53 60.48 263.34 60.5V62.15C263.34 62.75 263.64 63.05 264.24 63.05H265.59C266.19 63.05 266.49 62.75 266.49 62.15V60.875C266.49 60.725 266.44 60.6 266.34 60.5C266.24 60.4 266.12 60.35 265.97 60.35H265.14ZM271.44 62.75H274.14V65H271.44V62.75ZM271.44 57.05H274.14V59.3H271.44V57.05ZM282.84 57.35C282.84 56.75 282.54 56.45 281.94 56.45H280.29C279.69 56.45 279.39 56.75 279.39 57.35V62.15C279.39 62.75 279.69 63.05 280.29 63.05H281.94C282.54 63.05 282.84 62.75 282.84 62.15V57.35ZM285.54 62.15C285.54 63.2 285.3 63.965 284.82 64.445C284.35 64.915 283.59 65.15 282.54 65.15H279.69C278.64 65.15 277.88 64.915 277.4 64.445C276.93 63.965 276.69 63.2 276.69 62.15V57.35C276.69 56.3 276.93 55.54 277.4 55.07C277.88 54.59 278.64 54.35 279.69 54.35H282.54C283.59 54.35 284.35 54.59 284.82 55.07C285.3 55.54 285.54 56.3 285.54 57.35V62.15ZM294.39 57.35C294.39 56.75 294.09 56.45 293.49 56.45H291.84C291.24 56.45 290.94 56.75 290.94 57.35V62.15C290.94 62.75 291.24 63.05 291.84 63.05H293.49C294.09 63.05 294.39 62.75 294.39 62.15V57.35ZM297.09 62.15C297.09 63.2 296.85 63.965 296.37 64.445C295.9 64.915 295.14 65.15 294.09 65.15H291.24C290.19 65.15 289.43 64.915 288.95 64.445C288.48 63.965 288.24 63.2 288.24 62.15V57.35C288.24 56.3 288.48 55.54 288.95 55.07C289.43 54.59 290.19 54.35 291.24 54.35H294.09C295.14 54.35 295.9 54.59 296.37 55.07C296.85 55.54 297.09 56.3 297.09 57.35V62.15Z"/>
</mask>
<path d="M3.59998 11H0.900024V0.499977H9.07501V2.59998H3.59998V11ZM9.68402 8.74998H12.384V11H9.68402V8.74998ZM23.935 4.54998H27.535C28.585 4.54998 29.345 4.78998 29.815 5.26998C30.295 5.73998 30.535 6.49998 30.535 7.54998V7.99998C30.535 9.04998 30.295 9.81498 29.815 10.295C29.345 10.765 28.585 11 27.535 11H21.235V0.499977H29.56V2.59998H23.935V4.54998ZM27.835 7.54998C27.835 6.94998 27.535 6.64998 26.935 6.64998H23.935V8.89998H26.935C27.535 8.89998 27.835 8.59998 27.835 7.99998V7.54998ZM41.709 11H33.384V0.499977H41.709V2.59998H36.084V4.62498H40.509V6.72498H36.084V8.89998H41.709V11ZM47.556 8.82498C47.506 9.54498 47.276 10.115 46.866 10.535C46.456 10.945 45.951 11.15 45.351 11.15C44.751 11.15 44.186 11.1 43.656 11V8.97498H44.331C44.521 8.97498 44.676 8.90998 44.796 8.77998C44.926 8.64998 44.996 8.48998 45.006 8.29998L45.456 0.499977H53.781V11H51.081V2.59998H47.931L47.556 8.82498ZM59.783 11H57.083V0.499977H65.258V2.59998H59.783V11ZM74.561 3.34998C74.561 2.74998 74.261 2.44998 73.661 2.44998H71.111C70.511 2.44998 70.211 2.74998 70.211 3.34998V8.14998C70.211 8.74998 70.511 9.04998 71.111 9.04998H73.661C74.261 9.04998 74.561 8.74998 74.561 8.14998V3.34998ZM77.261 8.14998C77.261 9.19998 77.021 9.96498 76.541 10.445C76.071 10.915 75.311 11.15 74.261 11.15H70.511C69.461 11.15 68.696 10.915 68.216 10.445C67.746 9.96498 67.511 9.19998 67.511 8.14998V3.34998C67.511 2.29998 67.746 1.53998 68.216 1.06998C68.696 0.589977 69.461 0.349976 70.511 0.349976H74.261C75.311 0.349976 76.071 0.589977 76.541 1.06998C77.021 1.53998 77.261 2.29998 77.261 3.34998V8.14998ZM80.268 0.499977H86.568C87.618 0.499977 88.378 0.739978 88.848 1.21998C89.328 1.68998 89.568 2.44998 89.568 3.49998V4.99998C89.568 6.04998 89.328 6.81498 88.848 7.29498C88.378 7.76498 87.618 7.99998 86.568 7.99998H82.968V11H80.268V0.499977ZM86.868 3.49998C86.868 2.89998 86.568 2.59998 85.968 2.59998H82.968V5.89998H85.968C86.568 5.89998 86.868 5.59998 86.868 4.99998V3.49998ZM99.168 3.34998C99.168 2.74998 98.868 2.44998 98.268 2.44998H95.718C95.118 2.44998 94.818 2.74998 94.818 3.34998V8.14998C94.818 8.74998 95.118 9.04998 95.718 9.04998H98.268C98.868 9.04998 99.168 8.74998 99.168 8.14998V3.34998ZM101.868 8.14998C101.868 9.19998 101.628 9.96498 101.148 10.445C100.678 10.915 99.918 11.15 98.868 11.15H95.118C94.068 11.15 93.303 10.915 92.823 10.445C92.353 9.96498 92.118 9.19998 92.118 8.14998V3.34998C92.118 2.29998 92.353 1.53998 92.823 1.06998C93.303 0.589977 94.068 0.349976 95.118 0.349976H98.868C99.918 0.349976 100.678 0.589977 101.148 1.06998C101.628 1.53998 101.868 2.29998 101.868 3.34998V8.14998ZM106.082 0.499977H113.957V8.89998H115.082V12.95H112.532L112.382 11H106.532L106.382 12.95H103.832V8.89998H104.807C105.097 8.56998 105.312 8.19998 105.452 7.78998C105.602 7.36998 105.687 6.98998 105.707 6.64998L106.082 0.499977ZM111.257 8.89998V2.59998H108.482L108.257 6.34998C108.227 6.95998 108.077 7.57498 107.807 8.19498C107.697 8.45498 107.572 8.68998 107.432 8.89998H111.257ZM117.336 8.74998H120.036V10.85L118.986 12.5H117.636L118.236 11H117.336V8.74998ZM131.406 11.15C130.906 11.15 130.391 11.1 129.861 11V8.97498H131.211C131.501 8.97498 131.701 8.85998 131.811 8.62998C131.861 8.52998 131.886 8.42498 131.886 8.31498C131.886 8.19498 131.861 8.08998 131.811 7.99998L127.686 0.499977H130.686L133.386 5.82498L135.636 0.499977H138.636L134.811 8.74998C134.461 9.53998 134.041 10.13 133.551 10.52C133.011 10.94 132.296 11.15 131.406 11.15ZM143.29 8.82498C143.24 9.54498 143.01 10.115 142.6 10.535C142.19 10.945 141.69 11.15 141.09 11.15C140.487 11.15 139.922 11.1 139.392 11V8.97498H140.067C140.257 8.97498 140.412 8.90998 140.532 8.77998C140.662 8.64998 140.732 8.48998 140.742 8.29998L141.19 0.499977H149.52V11H146.82V2.59998H143.67L143.29 8.82498ZM152.37 8.74998H155.07V11H152.37V8.74998ZM172.92 5.14998L170.82 8.89998H168.72L166.62 5.14998V11H163.92V0.499977H166.77L169.77 6.04998L172.77 0.499977H175.62V11H172.92V5.14998ZM180.8 11H177.88L181.85 0.499977H184.85L188.83 11H185.9L185.23 9.12498H181.48L180.8 11ZM182.15 7.17498H184.55L183.35 3.64998L182.15 7.17498ZM193.77 11H191.07V0.499977H199.25V2.59998H193.77V11ZM210.95 11H208.25V4.54998L204.65 11H201.8V0.499977H204.5V6.94998L208.1 0.499977H210.95V11ZM222.36 10.85C220.13 11.05 218.28 11.15 216.81 11.15C215.83 11.15 215.11 10.92 214.65 10.46C214.19 9.99998 213.96 9.27998 213.96 8.29998V3.49998C213.96 2.44998 214.2 1.68998 214.67 1.21998C215.15 0.739978 215.91 0.499977 216.96 0.499977H222.36V2.59998H217.56C216.96 2.59998 216.66 2.89998 216.66 3.49998V8.29998C216.66 8.52998 216.73 8.71498 216.86 8.85498C217 8.98498 217.17 9.04998 217.38 9.04998C217.59 9.04998 217.82 9.04998 218.07 9.04998C218.32 9.03998 218.58 9.02998 218.85 9.01998C219.12 9.00998 219.39 8.99998 219.66 8.98998C219.94 8.97998 220.3 8.95998 220.73 8.92998C221.17 8.89998 221.71 8.86498 222.36 8.82498V10.85ZM230.16 11H227.46V2.59998H224.31V0.499977H233.31V2.59998H230.16V11ZM235.86 0.499977H242.16C243.21 0.499977 243.97 0.739978 244.44 1.21998C244.92 1.68998 245.16 2.44998 245.16 3.49998V4.99998C245.16 6.04998 244.92 6.81498 244.44 7.29498C243.97 7.76498 243.21 7.99998 242.16 7.99998H238.56V11H235.86V0.499977ZM242.46 3.49998C242.46 2.89998 242.16 2.59998 241.56 2.59998H238.56V5.89998H241.56C242.16 5.89998 242.46 5.59998 242.46 4.99998V3.49998ZM248.99 11H246.07L250.04 0.499977H253.04L257.02 11H254.09L253.42 9.12498H249.67L248.99 11ZM250.34 7.17498H252.74L251.54 3.64998L250.34 7.17498ZM262.42 8.82498C262.37 9.54498 262.14 10.115 261.73 10.535C261.32 10.945 260.81 11.15 260.21 11.15C259.61 11.15 259.05 11.1 258.52 11V8.97498H259.19C259.38 8.97498 259.54 8.90998 259.66 8.77998C259.79 8.64998 259.86 8.48998 259.87 8.29998L260.32 0.499977H268.64V11H265.94V2.59998H262.79L262.42 8.82498ZM274.65 4.09998H278.25C279.3 4.09998 280.06 4.33998 280.53 4.81998C281.01 5.28998 281.25 6.04998 281.25 7.09998V7.99998C281.25 9.04998 281.01 9.81498 280.53 10.295C280.06 10.765 279.3 11 278.25 11H271.95V0.499977H274.65V4.09998ZM278.55 7.09998C278.55 6.49998 278.25 6.19998 277.65 6.19998H274.65V8.89998H277.65C278.25 8.89998 278.55 8.59998 278.55 7.99998V7.09998ZM293.25 11H290.55V6.72498H286.8V11H284.1V0.499977H286.8V4.62498H290.55V0.499977H293.25V11ZM298.43 11H295.5L299.48 0.499977H302.48L306.45 11H303.53L302.85 9.12498H299.1L298.43 11ZM299.78 7.17498H302.18L300.98 3.64998L299.78 7.17498ZM317.7 11H315V7.54998H312.98L311.1 11H308.25L310.2 7.39998C309.56 7.24998 309.1 6.94498 308.82 6.48498C308.54 6.02498 308.4 5.37998 308.4 4.54998V3.49998C308.4 2.44998 308.64 1.68998 309.11 1.21998C309.59 0.739978 310.35 0.499977 311.4 0.499977H317.7V11ZM311.1 4.54998C311.1 5.14998 311.4 5.44998 312 5.44998H315V2.59998H312C311.4 2.59998 311.1 2.89998 311.1 3.49998V4.54998ZM331.94 11.15C330.27 11.15 328.42 11.05 326.39 10.85V8.82498C328.6 8.97498 330.25 9.04998 331.34 9.04998C331.57 9.04998 331.75 8.98498 331.88 8.85498C332.02 8.71498 332.09 8.52998 332.09 8.29998V7.54998C332.09 6.94998 331.79 6.64998 331.19 6.64998H326.84V0.499977H334.04V2.59998H329.54V4.54998H331.94C332.92 4.54998 333.64 4.77498 334.1 5.22498C334.56 5.66498 334.79 6.33998 334.79 7.24998V8.29998C334.79 9.27998 334.56 9.99998 334.1 10.46C333.64 10.92 332.92 11.15 331.94 11.15ZM342.44 11.15C340.77 11.15 338.92 11.05 336.89 10.85V8.82498C339.1 8.97498 340.75 9.04998 341.84 9.04998C342.07 9.04998 342.25 8.98498 342.38 8.85498C342.52 8.71498 342.59 8.52998 342.59 8.29998V7.54998C342.59 6.94998 342.29 6.64998 341.69 6.64998H337.34V0.499977H344.54V2.59998H340.04V4.54998H342.44C343.42 4.54998 344.14 4.77498 344.6 5.22498C345.06 5.66498 345.29 6.33998 345.29 7.24998V8.29998C345.29 9.27998 345.06 9.99998 344.6 10.46C344.14 10.92 343.42 11.15 342.44 11.15ZM350.68 4.54998H354.28C355.33 4.54998 356.09 4.78998 356.56 5.26998C357.04 5.73998 357.28 6.49998 357.28 7.54998V7.99998C357.28 9.04998 357.04 9.81498 356.56 10.295C356.09 10.765 355.33 11 354.28 11H347.98V0.499977H356.31V2.59998H350.68V4.54998ZM354.58 7.54998C354.58 6.94998 354.28 6.64998 353.68 6.64998H350.68V8.89998H353.68C354.28 8.89998 354.58 8.59998 354.58 7.99998V7.54998ZM3.15002 24.575C3.15002 27.215 3.77502 29.49 5.02502 31.4L3.75 32.45C2.69 31.47 1.87499 30.3 1.30499 28.94C0.734993 27.58 0.450012 26.125 0.450012 24.575C0.450012 23.025 0.734993 21.57 1.30499 20.21C1.87499 18.85 2.69 17.68 3.75 16.7L5.02502 17.75C3.77502 19.66 3.15002 21.935 3.15002 24.575ZM6.67798 26.825C9.22798 26.975 11.028 27.05 12.078 27.05C12.308 27.05 12.488 26.985 12.618 26.855C12.758 26.715 12.828 26.53 12.828 26.3V25.7C12.828 25.1 12.528 24.8 11.928 24.8H8.328V22.7H11.628C12.228 22.7 12.528 22.4 12.528 21.8V21.5C12.528 20.9 12.228 20.6 11.628 20.6H6.828V18.5H12.378C13.358 18.5 14.078 18.725 14.538 19.175C14.998 19.615 15.228 20.29 15.228 21.2C15.228 21.8 15.088 22.29 14.808 22.67C14.538 23.04 14.178 23.3 13.728 23.45C14.538 23.67 15.088 24.21 15.378 25.07C15.478 25.38 15.528 25.74 15.528 26.15V26.3C15.528 27.28 15.298 28 14.838 28.46C14.378 28.92 13.658 29.15 12.678 29.15C11.008 29.15 9.00798 29.05 6.67798 28.85V26.825ZM20.248 29H17.323L21.298 18.5H24.298L28.273 29H25.348L24.673 27.125H20.923L20.248 29ZM21.598 25.175H23.998L22.798 21.65L21.598 25.175ZM38.847 29H30.522V18.5H38.847V20.6H33.222V22.625H37.647V24.725H33.222V26.9H38.847V29ZM40.944 26.825C43.494 26.975 45.294 27.05 46.344 27.05C46.574 27.05 46.754 26.985 46.884 26.855C47.024 26.715 47.094 26.53 47.094 26.3V25.7C47.094 25.1 46.794 24.8 46.194 24.8H42.594V22.7H45.894C46.494 22.7 46.794 22.4 46.794 21.8V21.5C46.794 20.9 46.494 20.6 45.894 20.6H41.094V18.5H46.644C47.624 18.5 48.344 18.725 48.804 19.175C49.264 19.615 49.494 20.29 49.494 21.2C49.494 21.8 49.354 22.29 49.074 22.67C48.804 23.04 48.444 23.3 47.994 23.45C48.804 23.67 49.354 24.21 49.644 25.07C49.744 25.38 49.794 25.74 49.794 26.15V26.3C49.794 27.28 49.564 28 49.104 28.46C48.644 28.92 47.924 29.15 46.944 29.15C45.274 29.15 43.274 29.05 40.944 28.85V26.825ZM53.845 18.5H61.72V26.9H62.845V30.95H60.295L60.145 29H54.295L54.145 30.95H51.595V26.9H52.57C52.86 26.57 53.075 26.2 53.215 25.79C53.365 25.37 53.45 24.99 53.47 24.65L53.845 18.5ZM59.02 26.9V20.6H56.245L56.02 24.35C55.99 24.96 55.84 25.575 55.57 26.195C55.46 26.455 55.335 26.69 55.195 26.9H59.02ZM79.646 28.85C77.416 29.05 75.566 29.15 74.096 29.15C73.116 29.15 72.396 28.92 71.936 28.46C71.476 28 71.246 27.28 71.246 26.3V21.5C71.246 20.45 71.481 19.69 71.951 19.22C72.431 18.74 73.196 18.5 74.246 18.5H79.646V20.6H74.846C74.246 20.6 73.946 20.9 73.946 21.5V26.3C73.946 26.53 74.011 26.715 74.141 26.855C74.281 26.985 74.456 27.05 74.666 27.05C74.876 27.05 75.106 27.05 75.356 27.05C75.606 27.04 75.866 27.03 76.136 27.02C76.406 27.01 76.676 27 76.946 26.99C77.226 26.98 77.581 26.96 78.011 26.93C78.451 26.9 78.996 26.865 79.646 26.825V28.85ZM90.865 29.15C90.365 29.15 89.85 29.1 89.32 29V26.975H90.67C90.96 26.975 91.16 26.86 91.27 26.63C91.32 26.53 91.345 26.425 91.345 26.315C91.345 26.195 91.32 26.09 91.27 26L87.145 18.5H90.145L92.845 23.825L95.095 18.5H98.095L94.27 26.75C93.92 27.54 93.5 28.13 93.01 28.52C92.47 28.94 91.755 29.15 90.865 29.15ZM102.751 26.825C102.701 27.545 102.471 28.115 102.061 28.535C101.651 28.945 101.146 29.15 100.546 29.15C99.946 29.15 99.381 29.1 98.851 29V26.975H99.526C99.716 26.975 99.871 26.91 99.991 26.78C100.121 26.65 100.191 26.49 100.201 26.3L100.651 18.5H108.976V29H106.276V20.6H103.126L102.751 26.825ZM111.828 26.75H114.528V29H111.828V26.75ZM132.379 23.15L130.279 26.9H128.179L126.079 23.15V29H123.379V18.5H126.229L129.229 24.05L132.229 18.5H135.079V29H132.379V23.15ZM145.13 21.35C145.13 20.75 144.83 20.45 144.23 20.45H141.68C141.08 20.45 140.784 20.75 140.784 21.35V26.15C140.784 26.75 141.08 27.05 141.68 27.05H144.23C144.83 27.05 145.13 26.75 145.13 26.15V21.35ZM147.83 26.15C147.83 27.2 147.59 27.965 147.11 28.445C146.64 28.915 145.88 29.15 144.83 29.15H141.08C140.034 29.15 139.269 28.915 138.789 28.445C138.319 27.965 138.084 27.2 138.084 26.15V21.35C138.084 20.3 138.319 19.54 138.789 19.07C139.269 18.59 140.034 18.35 141.08 18.35H144.83C145.88 18.35 146.64 18.59 147.11 19.07C147.59 19.54 147.83 20.3 147.83 21.35V26.15ZM153.99 26.825C153.94 27.545 153.71 28.115 153.3 28.535C152.89 28.945 152.39 29.15 151.79 29.15C151.19 29.15 150.62 29.1 150.09 29V26.975H150.77C150.96 26.975 151.11 26.91 151.23 26.78C151.36 26.65 151.43 26.49 151.44 26.3L151.89 18.5H160.22V29H157.52V20.6H154.37L153.99 26.825ZM170.27 21.35C170.27 20.75 169.97 20.45 169.37 20.45H166.82C166.22 20.45 165.92 20.75 165.92 21.35V26.15C165.92 26.75 166.22 27.05 166.82 27.05H169.37C169.97 27.05 170.27 26.75 170.27 26.15V21.35ZM172.97 26.15C172.97 27.2 172.73 27.965 172.25 28.445C171.78 28.915 171.02 29.15 169.97 29.15H166.22C165.17 29.15 164.4 28.915 163.92 28.445C163.45 27.965 163.22 27.2 163.22 26.15V21.35C163.22 20.3 163.45 19.54 163.92 19.07C164.4 18.59 165.17 18.35 166.22 18.35H169.97C171.02 18.35 171.78 18.59 172.25 19.07C172.73 19.54 172.97 20.3 172.97 21.35V26.15ZM177.18 18.5H185.06V26.9H186.18V30.95H183.63L183.48 29H177.63L177.48 30.95H174.93V26.9H175.91C176.2 26.57 176.41 26.2 176.55 25.79C176.7 25.37 176.79 24.99 176.81 24.65L177.18 18.5ZM182.36 26.9V20.6H179.58L179.36 24.35C179.33 24.96 179.18 25.575 178.91 26.195C178.8 26.455 178.67 26.69 178.53 26.9H182.36ZM197.21 29H188.89V18.5H197.21V20.6H191.59V22.625H196.01V24.725H191.59V26.9H197.21V29ZM212.58 18.35C212.83 18.35 213.28 18.4 213.93 18.5V20.525H213.33C213.18 20.525 213.05 20.575 212.93 20.675C212.81 20.765 212.72 20.865 212.66 20.975L211.23 23.675L214.16 29H211.31L208.98 24.725H207.93V29H205.23V24.725H204.18L201.86 29H199.01L201.93 23.675L200.51 20.975C200.45 20.865 200.36 20.765 200.24 20.675C200.12 20.575 199.98 20.525 199.83 20.525H199.23V18.5C199.88 18.4 200.33 18.35 200.58 18.35C201.11 18.35 201.54 18.485 201.86 18.755C202.19 19.015 202.46 19.355 202.68 19.775L204.18 22.625H205.23V18.5H207.93V22.625H208.98L210.48 19.775C210.7 19.355 210.97 19.015 211.29 18.755C211.62 18.485 212.05 18.35 212.58 18.35ZM225.7 29H223V24.725H219.25V29H216.55V18.5H219.25V22.625H223V18.5H225.7V29ZM230.89 29H227.96L231.94 18.5H234.94L238.91 29H235.99L235.31 27.125H231.56L230.89 29ZM232.24 25.175H234.64L233.44 21.65L232.24 25.175ZM250.16 29H247.46V25.55H245.44L243.56 29H240.71L242.66 25.4C242.02 25.25 241.56 24.945 241.28 24.485C241 24.025 240.86 23.38 240.86 22.55V21.5C240.86 20.45 241.1 19.69 241.57 19.22C242.05 18.74 242.81 18.5 243.86 18.5H250.16V29ZM243.56 22.55C243.56 23.15 243.86 23.45 244.46 23.45H247.46V20.6H244.46C243.86 20.6 243.56 20.9 243.56 21.5V22.55ZM254.28 24.575C254.28 21.935 253.66 19.66 252.41 17.75L253.68 16.7C254.74 17.68 255.56 18.85 256.13 20.21C256.7 21.57 256.98 23.025 256.98 24.575C256.98 26.125 256.7 27.58 256.13 28.94C255.56 30.3 254.74 31.47 253.68 32.45L252.41 31.4C253.66 29.49 254.28 27.215 254.28 24.575ZM10.05 65H7.34998V56.6H3.59998V65H0.900024V54.5H10.05V65ZM22.507 65H19.807V60.725H16.057V65H13.357V54.5H16.057V58.625H19.807V54.5H22.507V65ZM25.364 60.8V58.7H31.514V60.8H25.364ZM43.51 65H40.81V56.6H37.06V65H34.36V54.5H43.51V65ZM51.917 65H49.217V56.6H46.067V54.5H55.067V56.6H51.917V65ZM63.766 62.825C65.826 62.975 67.276 63.05 68.116 63.05C68.346 63.05 68.526 62.985 68.656 62.855C68.796 62.715 68.866 62.53 68.866 62.3V60.95C67.896 61.15 67.046 61.25 66.316 61.25H65.266C64.586 61.25 64.041 61.045 63.631 60.635C63.221 60.225 63.016 59.68 63.016 59V57.05C63.016 56.14 63.246 55.465 63.706 55.025C64.166 54.575 64.886 54.35 65.866 54.35H68.716C69.696 54.35 70.416 54.575 70.876 55.025C71.336 55.465 71.566 56.14 71.566 57.05V62.3C71.566 63.28 71.336 64 70.876 64.46C70.416 64.92 69.696 65.15 68.716 65.15C67.346 65.15 65.696 65.05 63.766 64.85V62.825ZM67.066 59.15C67.636 59.15 68.236 59.1 68.866 59V57.35C68.866 56.75 68.566 56.45 67.966 56.45H66.616C66.016 56.45 65.716 56.75 65.716 57.35V58.625C65.716 58.775 65.766 58.9 65.866 59C65.966 59.1 66.091 59.15 66.241 59.15H67.066ZM74.114 62.75H76.814V65H74.114V62.75ZM74.114 57.05H76.814V59.3H74.114V57.05ZM85.518 57.35C85.518 56.75 85.218 56.45 84.618 56.45H82.968C82.368 56.45 82.068 56.75 82.068 57.35V62.15C82.068 62.75 82.368 63.05 82.968 63.05H84.618C85.218 63.05 85.518 62.75 85.518 62.15V57.35ZM88.218 62.15C88.218 63.2 87.978 63.965 87.498 64.445C87.028 64.915 86.268 65.15 85.218 65.15H82.368C81.318 65.15 80.553 64.915 80.073 64.445C79.603 63.965 79.368 63.2 79.368 62.15V57.35C79.368 56.3 79.603 55.54 80.073 55.07C80.553 54.59 81.318 54.35 82.368 54.35H85.218C86.268 54.35 87.028 54.59 87.498 55.07C87.978 55.54 88.218 56.3 88.218 57.35V62.15ZM97.066 57.35C97.066 56.75 96.766 56.45 96.166 56.45H94.516C93.916 56.45 93.616 56.75 93.616 57.35V62.15C93.616 62.75 93.916 63.05 94.516 63.05H96.166C96.766 63.05 97.066 62.75 97.066 62.15V57.35ZM99.766 62.15C99.766 63.2 99.526 63.965 99.046 64.445C98.576 64.915 97.816 65.15 96.766 65.15H93.916C92.866 65.15 92.101 64.915 91.621 64.445C91.151 63.965 90.916 63.2 90.916 62.15V57.35C90.916 56.3 91.151 55.54 91.621 55.07C92.101 54.59 92.866 54.35 93.916 54.35H96.766C97.816 54.35 98.576 54.59 99.046 55.07C99.526 55.54 99.766 56.3 99.766 57.35V62.15ZM102.315 60.8V58.7H108.465V60.8H102.315ZM112.286 65V56.825L110.561 57.425L109.811 55.7L112.586 54.5H114.986V65H112.286ZM121.44 60.8C120.84 60.8 120.54 61.1 120.54 61.7V62.3C120.54 62.53 120.605 62.715 120.735 62.855C120.875 62.985 121.06 63.05 121.29 63.05H123.54C123.77 63.05 123.95 62.985 124.08 62.855C124.22 62.715 124.29 62.53 124.29 62.3V61.7C124.29 61.1 123.99 60.8 123.39 60.8H121.44ZM121.74 56.45C121.14 56.45 120.84 56.75 120.84 57.35V57.8C120.84 58.4 121.14 58.7 121.74 58.7H123.09C123.69 58.7 123.99 58.4 123.99 57.8V57.35C123.99 56.75 123.69 56.45 123.09 56.45H121.74ZM126.99 62.3C126.99 63.28 126.76 64 126.3 64.46C125.84 64.92 125.12 65.15 124.14 65.15H120.69C119.71 65.15 118.99 64.92 118.53 64.46C118.07 64 117.84 63.28 117.84 62.3V62.15C117.84 61.39 118.03 60.76 118.41 60.26C118.71 59.86 119.12 59.59 119.64 59.45C119.19 59.3 118.825 59.04 118.545 58.67C118.275 58.29 118.14 57.8 118.14 57.2V57.05C118.14 56.14 118.37 55.465 118.83 55.025C119.29 54.575 120.01 54.35 120.99 54.35H123.84C124.82 54.35 125.54 54.575 126 55.025C126.46 55.465 126.69 56.14 126.69 57.05V57.2C126.69 57.8 126.55 58.29 126.27 58.67C126 59.04 125.64 59.3 125.19 59.45C126 59.67 126.55 60.21 126.84 61.07C126.94 61.38 126.99 61.74 126.99 62.15V62.3ZM129.388 62.75H132.088V65H129.388V62.75ZM129.388 57.05H132.088V59.3H129.388V57.05ZM140.792 57.35C140.792 56.75 140.492 56.45 139.892 56.45H138.242C137.642 56.45 137.342 56.75 137.342 57.35V62.15C137.342 62.75 137.642 63.05 138.242 63.05H139.892C140.492 63.05 140.792 62.75 140.792 62.15V57.35ZM143.49 62.15C143.49 63.2 143.25 63.965 142.77 64.445C142.3 64.915 141.54 65.15 140.492 65.15H137.642C136.592 65.15 135.827 64.915 135.347 64.445C134.877 63.965 134.642 63.2 134.642 62.15V57.35C134.642 56.3 134.877 55.54 135.347 55.07C135.827 54.59 136.592 54.35 137.642 54.35H140.492C141.54 54.35 142.3 54.59 142.77 55.07C143.25 55.54 143.49 56.3 143.49 57.35V62.15ZM152.34 57.35C152.34 56.75 152.04 56.45 151.44 56.45H149.79C149.19 56.45 148.89 56.75 148.89 57.35V62.15C148.89 62.75 149.19 63.05 149.79 63.05H151.44C152.04 63.05 152.34 62.75 152.34 62.15V57.35ZM155.04 62.15C155.04 63.2 154.8 63.965 154.32 64.445C153.85 64.915 153.09 65.15 152.04 65.15H149.19C148.14 65.15 147.38 64.915 146.9 64.445C146.43 63.965 146.19 63.2 146.19 62.15V57.35C146.19 56.3 146.43 55.54 146.9 55.07C147.38 54.59 148.14 54.35 149.19 54.35H152.04C153.09 54.35 153.85 54.59 154.32 55.07C154.8 55.54 155.04 56.3 155.04 57.35V62.15ZM157.59 62.75H160.29V64.85L159.24 66.5H157.89L158.49 65H157.59V62.75ZM177.24 64.85C175.01 65.05 173.16 65.15 171.69 65.15C170.71 65.15 169.99 64.92 169.53 64.46C169.07 64 168.84 63.28 168.84 62.3V57.5C168.84 56.45 169.08 55.69 169.55 55.22C170.03 54.74 170.79 54.5 171.84 54.5H177.24V56.6H172.44C171.84 56.6 171.54 56.9 171.54 57.5V62.3C171.54 62.53 171.61 62.715 171.74 62.855C171.88 62.985 172.05 63.05 172.26 63.05C172.47 63.05 172.7 63.05 172.95 63.05C173.2 63.04 173.46 63.03 173.73 63.02C174 63.01 174.27 63 174.54 62.99C174.82 62.98 175.18 62.96 175.61 62.93C176.05 62.9 176.59 62.865 177.24 62.825V64.85ZM182.64 58.55H186.24C187.29 58.55 188.05 58.79 188.52 59.27C189 59.74 189.24 60.5 189.24 61.55V62C189.24 63.05 189 63.815 188.52 64.295C188.05 64.765 187.29 65 186.24 65H179.94V54.5H188.27V56.6H182.64V58.55ZM186.54 61.55C186.54 60.95 186.24 60.65 185.64 60.65H182.64V62.9H185.64C186.24 62.9 186.54 62.6 186.54 62V61.55ZM199.66 65V56.825L197.94 57.425L197.19 55.7L199.96 54.5H202.36V65H199.66ZM211.52 57.35C211.52 56.75 211.22 56.45 210.62 56.45H208.97C208.37 56.45 208.07 56.75 208.07 57.35V62.15C208.07 62.75 208.37 63.05 208.97 63.05H210.62C211.22 63.05 211.52 62.75 211.52 62.15V57.35ZM214.22 62.15C214.22 63.2 213.98 63.965 213.5 64.445C213.03 64.915 212.27 65.15 211.22 65.15H208.37C207.32 65.15 206.55 64.915 206.07 64.445C205.6 63.965 205.37 63.2 205.37 62.15V57.35C205.37 56.3 205.6 55.54 206.07 55.07C206.55 54.59 207.32 54.35 208.37 54.35H211.22C212.27 54.35 213.03 54.59 213.5 55.07C213.98 55.54 214.22 56.3 214.22 57.35V62.15ZM216.77 62.75H219.47V65H216.77V62.75ZM216.77 57.05H219.47V59.3H216.77V57.05ZM228.17 57.35C228.17 56.75 227.87 56.45 227.27 56.45H225.62C225.02 56.45 224.72 56.75 224.72 57.35V62.15C224.72 62.75 225.02 63.05 225.62 63.05H227.27C227.87 63.05 228.17 62.75 228.17 62.15V57.35ZM230.87 62.15C230.87 63.2 230.63 63.965 230.15 64.445C229.68 64.915 228.92 65.15 227.87 65.15H225.02C223.97 65.15 223.2 64.915 222.72 64.445C222.25 63.965 222.02 63.2 222.02 62.15V57.35C222.02 56.3 222.25 55.54 222.72 55.07C223.2 54.59 223.97 54.35 225.02 54.35H227.87C228.92 54.35 229.68 54.59 230.15 55.07C230.63 55.54 230.87 56.3 230.87 57.35V62.15ZM239.72 57.35C239.72 56.75 239.42 56.45 238.82 56.45H237.17C236.57 56.45 236.27 56.75 236.27 57.35V62.15C236.27 62.75 236.57 63.05 237.17 63.05H238.82C239.42 63.05 239.72 62.75 239.72 62.15V57.35ZM242.42 62.15C242.42 63.2 242.18 63.965 241.7 64.445C241.23 64.915 240.47 65.15 239.42 65.15H236.57C235.52 65.15 234.75 64.915 234.27 64.445C233.8 63.965 233.57 63.2 233.57 62.15V57.35C233.57 56.3 233.8 55.54 234.27 55.07C234.75 54.59 235.52 54.35 236.57 54.35H239.42C240.47 54.35 241.23 54.59 241.7 55.07C242.18 55.54 242.42 56.3 242.42 57.35V62.15ZM244.97 60.8V58.7H251.12V60.8H244.97ZM254.94 65V56.825L253.21 57.425L252.46 55.7L255.24 54.5H257.64V65H254.94ZM263.49 54.35C264.86 54.35 266.51 54.45 268.44 54.65V56.675C267.89 56.645 267.42 56.62 267.03 56.6C266.65 56.57 266.34 56.55 266.09 56.54C265.85 56.52 265.61 56.5 265.37 56.48C264.97 56.46 264.6 56.45 264.26 56.45C263.65 56.45 263.34 56.7 263.34 57.2V58.55C264.31 58.35 265.16 58.25 265.89 58.25H266.94C267.62 58.25 268.17 58.455 268.58 58.865C268.99 59.275 269.19 59.82 269.19 60.5V62.45C269.19 63.36 268.96 64.04 268.5 64.49C268.04 64.93 267.32 65.15 266.34 65.15H263.49C262.51 65.15 261.79 64.93 261.33 64.49C260.87 64.04 260.64 63.36 260.64 62.45V57.2C260.64 56.22 260.87 55.5 261.33 55.04C261.79 54.58 262.51 54.35 263.49 54.35ZM265.14 60.35C264.76 60.35 264.41 60.37 264.09 60.41C263.78 60.45 263.53 60.48 263.34 60.5V62.15C263.34 62.75 263.64 63.05 264.24 63.05H265.59C266.19 63.05 266.49 62.75 266.49 62.15V60.875C266.49 60.725 266.44 60.6 266.34 60.5C266.24 60.4 266.12 60.35 265.97 60.35H265.14ZM271.44 62.75H274.14V65H271.44V62.75ZM271.44 57.05H274.14V59.3H271.44V57.05ZM282.84 57.35C282.84 56.75 282.54 56.45 281.94 56.45H280.29C279.69 56.45 279.39 56.75 279.39 57.35V62.15C279.39 62.75 279.69 63.05 280.29 63.05H281.94C282.54 63.05 282.84 62.75 282.84 62.15V57.35ZM285.54 62.15C285.54 63.2 285.3 63.965 284.82 64.445C284.35 64.915 283.59 65.15 282.54 65.15H279.69C278.64 65.15 277.88 64.915 277.4 64.445C276.93 63.965 276.69 63.2 276.69 62.15V57.35C276.69 56.3 276.93 55.54 277.4 55.07C277.88 54.59 278.64 54.35 279.69 54.35H282.54C283.59 54.35 284.35 54.59 284.82 55.07C285.3 55.54 285.54 56.3 285.54 57.35V62.15ZM294.39 57.35C294.39 56.75 294.09 56.45 293.49 56.45H291.84C291.24 56.45 290.94 56.75 290.94 57.35V62.15C290.94 62.75 291.24 63.05 291.84 63.05H293.49C294.09 63.05 294.39 62.75 294.39 62.15V57.35ZM297.09 62.15C297.09 63.2 296.85 63.965 296.37 64.445C295.9 64.915 295.14 65.15 294.09 65.15H291.24C290.19 65.15 289.43 64.915 288.95 64.445C288.48 63.965 288.24 63.2 288.24 62.15V57.35C288.24 56.3 288.48 55.54 288.95 55.07C289.43 54.59 290.19 54.35 291.24 54.35H294.09C295.14 54.35 295.9 54.59 296.37 55.07C296.85 55.54 297.09 56.3 297.09 57.35V62.15Z" fill="#373334" stroke="black" stroke-width="2" mask="url(#path-1-inside-1_1_64)"/>
</svg>
