<svg width="84" height="93" viewBox="0 0 84 93" fill="none" xmlns="http://www.w3.org/2000/svg">
<path d="M61 3.45032H22.599C14.3147 3.45032 7.599 10.166 7.599 18.4503V55.9998C7.599 64.2841 14.3147 70.9998 22.599 70.9998H61C69.2843 70.9998 76 64.2841 76 55.9998V18.4503C76 10.166 69.2843 3.45032 61 3.45032Z" stroke="#FF8500" stroke-width="6"/>
<path d="M23.199 21.7339H29.092L31.193 29.261M31.193 29.261C31.193 29.261 31.193 42.9467 35.625 45.1364C40.057 47.3261 46.257 47.3261 49.972 45.1364C53.687 42.9467 54.2 29.261 54.2 29.261H31.193Z" stroke="#FF8500" stroke-width="5"/>
<path d="M36.5 55.2688C37.8807 55.2688 39 54.0894 39 52.6344C39 51.1795 37.8807 50 36.5 50C35.1193 50 34 51.1795 34 52.6344C34 54.0894 35.1193 55.2688 36.5 55.2688Z" fill="#FF8500"/>
<path d="M48.5 55.2688C49.8807 55.2688 51 54.0894 51 52.6344C51 51.1795 49.8807 50 48.5 50C47.1193 50 46 51.1795 46 52.6344C46 54.0894 47.1193 55.2688 48.5 55.2688Z" fill="#FF8500"/>
<path d="M8.54999 81.35C8.79999 81.35 9.25002 81.4 9.90002 81.5V83.525H9.29999C9.14999 83.525 9.01502 83.575 8.89502 83.675C8.77502 83.765 8.685 83.865 8.625 83.975L7.20001 86.675L10.125 92H7.27502L4.95001 87.725H3.59998V92H0.900024V81.5H3.59998V85.625H4.95001L6.45001 82.775C6.67001 82.355 6.94001 82.015 7.26001 81.755C7.59001 81.485 8.01999 81.35 8.54999 81.35ZM19.272 84.35C19.272 83.75 18.972 83.45 18.372 83.45H15.822C15.222 83.45 14.922 83.75 14.922 84.35V89.15C14.922 89.75 15.222 90.05 15.822 90.05H18.372C18.972 90.05 19.272 89.75 19.272 89.15V84.35ZM21.972 89.15C21.972 90.2 21.732 90.965 21.252 91.445C20.782 91.915 20.022 92.15 18.972 92.15H15.222C14.172 92.15 13.407 91.915 12.927 91.445C12.457 90.965 12.222 90.2 12.222 89.15V84.35C12.222 83.3 12.457 82.54 12.927 82.07C13.407 81.59 14.172 81.35 15.222 81.35H18.972C20.022 81.35 20.782 81.59 21.252 82.07C21.732 82.54 21.972 83.3 21.972 84.35V89.15ZM24.979 81.5H31.279C32.329 81.5 33.089 81.74 33.559 82.22C34.039 82.69 34.279 83.45 34.279 84.5V86C34.279 87.05 34.039 87.815 33.559 88.295C33.089 88.765 32.329 89 31.279 89H27.679V92H24.979V81.5ZM31.579 84.5C31.579 83.9 31.279 83.6 30.679 83.6H27.679V86.9H30.679C31.279 86.9 31.579 86.6 31.579 86V84.5ZM36.529 89.825C39.079 89.975 40.879 90.05 41.929 90.05C42.159 90.05 42.339 89.985 42.469 89.855C42.609 89.715 42.679 89.53 42.679 89.3V88.7C42.679 88.1 42.379 87.8 41.779 87.8H38.179V85.7H41.479C42.079 85.7 42.379 85.4 42.379 84.8V84.5C42.379 83.9 42.079 83.6 41.479 83.6H36.679V81.5H42.229C43.209 81.5 43.929 81.725 44.389 82.175C44.849 82.615 45.079 83.29 45.079 84.2C45.079 84.8 44.939 85.29 44.659 85.67C44.389 86.04 44.029 86.3 43.579 86.45C44.389 86.67 44.939 87.21 45.229 88.07C45.329 88.38 45.379 88.74 45.379 89.15V89.3C45.379 90.28 45.149 91 44.689 91.46C44.229 91.92 43.509 92.15 42.529 92.15C40.859 92.15 38.859 92.05 36.529 91.85V89.825ZM57.373 92H54.673V85.55L51.073 92H48.223V81.5H50.923V87.95L54.523 81.5H57.373V92ZM69.83 92H67.13V87.725H63.38V92H60.68V81.5H63.38V85.625H67.13V81.5H69.83V92ZM75.012 92H72.087L76.062 81.5H79.062L83.037 92H80.112L79.437 90.125H75.687L75.012 92ZM76.362 88.175H78.762L77.562 84.65L76.362 88.175Z" fill="#FF8500"/>
</svg>
