<svg width="75" height="74" viewBox="0 0 75 74" fill="none" xmlns="http://www.w3.org/2000/svg">
<path d="M56.401 3H18C9.71573 3 3 9.71573 3 18V55.5496C3 63.8338 9.71573 70.5496 18 70.5496H56.401C64.6853 70.5496 71.401 63.8338 71.401 55.5496V18C71.401 9.71573 64.6853 3 56.401 3Z" stroke="#FF8500" stroke-width="6"/>
<path d="M18.6 21.28H24.493L26.594 28.8101M26.594 28.8101C26.594 28.8101 26.594 42.4999 31.026 44.6899C35.458 46.8799 41.658 46.8799 45.373 44.6899C49.088 42.4999 49.601 28.8101 49.601 28.8101H26.594Z" stroke="#FF8500" stroke-width="5"/>
<path d="M31.901 54.8145C33.2817 54.8145 34.401 53.635 34.401 52.1801C34.401 50.7251 33.2817 49.5455 31.901 49.5455C30.5203 49.5455 29.401 50.7251 29.401 52.1801C29.401 53.635 30.5203 54.8145 31.901 54.8145Z" fill="#FF8500"/>
<path d="M43.901 54.8145C45.2817 54.8145 46.401 53.635 46.401 52.1801C46.401 50.7251 45.2817 49.5455 43.901 49.5455C42.5203 49.5455 41.401 50.7251 41.401 52.1801C41.401 53.635 42.5203 54.8145 43.901 54.8145Z" fill="#FF8500"/>
</svg>
