<svg width="72" height="92" viewBox="0 0 72 92" fill="none" xmlns="http://www.w3.org/2000/svg">
<mask id="mask0_20_3" style="mask-type:luminance" maskUnits="userSpaceOnUse" x="0" y="0" width="72" height="72">
<path d="M72 0H0V72H72V0Z" fill="white"/>
</mask>
<g mask="url(#mask0_20_3)">
<path d="M57 0H15C11.02 0.0048 7.21002 1.5866 4.40002 4.3987C1.59002 7.2107 0 11.0232 0 15V57C0 60.9768 1.59002 64.7893 4.40002 67.6013C7.21002 70.4134 11.02 71.9952 15 72H57C60.98 71.9952 64.79 70.4134 67.6 67.6013C70.41 64.7893 72 60.9768 72 57V15C72 11.0232 70.41 7.2107 67.6 4.3987C64.79 1.5866 60.98 0.0048 57 0ZM21 66V63C21 59.0218 22.58 55.2064 25.39 52.3934C28.21 49.5804 32.02 48 36 48C39.98 48 43.79 49.5804 46.61 52.3934C49.42 55.2064 51 59.0218 51 63V66H21ZM66 57C66 59.3869 65.05 61.6761 63.36 63.364C61.68 65.0518 59.39 66 57 66V63C57 57.4305 54.79 52.089 50.85 48.1508C46.91 44.2125 41.57 42 36 42C30.43 42 25.09 44.2125 21.15 48.1508C17.21 52.089 15 57.4305 15 63V66C12.61 66 10.32 65.0518 8.64001 63.364C6.95001 61.6761 6 59.3869 6 57V15C6 12.6131 6.95001 10.3239 8.64001 8.636C10.32 6.9482 12.61 6 15 6H57C59.39 6 61.68 6.9482 63.36 8.636C65.05 10.3239 66 12.6131 66 15V57Z" fill="#FF8500"/>
<path d="M36 12C33.63 12 31.3099 12.7038 29.3299 14.0224C27.3599 15.3409 25.82 17.2151 24.91 19.4078C24.01 21.6005 23.77 24.0133 24.23 26.3411C24.69 28.6689 25.84 30.8071 27.51 32.4853C29.19 34.1635 31.33 35.3064 33.66 35.7694C35.99 36.2324 38.4 35.9948 40.59 35.0866C42.78 34.1783 44.66 32.6402 45.98 30.6668C47.3 28.6935 48 26.3734 48 24C48 20.8174 46.74 17.7652 44.49 15.5147C42.23 13.2643 39.18 12 36 12ZM36 30C34.81 30 33.65 29.6481 32.67 28.9888C31.68 28.3295 30.91 27.3925 30.46 26.2961C30 25.1997 29.88 23.9933 30.12 22.8295C30.35 21.6656 30.92 20.5965 31.76 19.7574C32.6 18.9182 33.6699 18.3468 34.8299 18.1153C35.9899 17.8838 37.2 18.0026 38.3 18.4567C39.39 18.9108 40.33 19.6799 40.99 20.6666C41.65 21.6533 42 22.8133 42 24C42 25.5913 41.37 27.1174 40.24 28.2426C39.12 29.3679 37.59 30 36 30Z" fill="#FF8500"/>
</g>
<path d="M6.90002 80.5H12.9C13.88 80.5 14.6001 80.725 15.0601 81.175C15.5201 81.615 15.75 82.29 15.75 83.2C15.75 83.8 15.62 84.29 15.36 84.67C15.1 85.04 14.78 85.3 14.4 85.45C15.21 85.67 15.76 86.21 16.05 87.07C16.15 87.38 16.2 87.74 16.2 88.15C16.2 89.13 15.97 89.85 15.51 90.31C15.05 90.77 14.33 91 13.35 91H6.90002V80.5ZM13.5 87.7C13.5 87.1 13.2 86.8 12.6 86.8H9.59998V88.9H12.6C13.2 88.9 13.5 88.6 13.5 88V87.7ZM13.05 83.5C13.05 82.9 12.75 82.6 12.15 82.6H9.59998V84.7H12.15C12.75 84.7 13.05 84.4 13.05 83.8V83.5ZM25.8 83.35C25.8 82.75 25.5 82.45 24.9 82.45H22.35C21.75 82.45 21.45 82.75 21.45 83.35V88.15C21.45 88.75 21.75 89.05 22.35 89.05H24.9C25.5 89.05 25.8 88.75 25.8 88.15V83.35ZM28.5 88.15C28.5 89.2 28.26 89.965 27.78 90.445C27.31 90.915 26.55 91.15 25.5 91.15H21.75C20.7 91.15 19.93 90.915 19.45 90.445C18.98 89.965 18.75 89.2 18.75 88.15V83.35C18.75 82.3 18.98 81.54 19.45 81.07C19.93 80.59 20.7 80.35 21.75 80.35H25.5C26.55 80.35 27.31 80.59 27.78 81.07C28.26 81.54 28.5 82.3 28.5 83.35V88.15ZM37.96 91V84.55L34.36 91H31.51V80.5H34.21V86.95L37.8101 80.5H40.66V91H37.96ZM35.26 79.75C33.96 79.75 33.3101 79.1 33.3101 77.8V77.35H35.26V77.725C35.26 77.875 35.31 78 35.41 78.1C35.51 78.2 35.63 78.25 35.78 78.25H36.23C36.38 78.25 36.51 78.2 36.61 78.1C36.71 78 36.76 77.875 36.76 77.725V77.35H38.71V77.8C38.71 79.1 38.06 79.75 36.76 79.75H35.26ZM49.0601 91H46.36V82.6H43.21V80.5H52.21V82.6H49.0601V91ZM63.92 91H61.22V84.55L57.62 91H54.77V80.5H57.47V86.95L61.0699 80.5H63.92V91Z" fill="#FF8500"/>
</svg>
