<svg width="131" height="41" viewBox="0 0 131 41" fill="none" xmlns="http://www.w3.org/2000/svg">
<path d="M131 0H0V41H131V0Z" fill="#00AFEF"/>
<path d="M50.4 26H46.6L41.8 17.6V26H38.2V12H42L46.8 20.4V12H50.4V26ZM63.909 26H52.809V12H63.909V14.8H56.409V17.5H62.309V20.3H56.409V23.2H63.909V26ZM75.705 12L78.105 21L80.205 12H84.105L80.305 26H76.505L74.105 17.3L71.705 26H67.905L64.105 12H68.005L70.105 21L72.505 12H75.705ZM84.914 23H88.514V26H84.914V23ZM85.314 21.8L84.914 17.6V12H88.514V17.6L88.114 21.8H85.314Z" fill="white"/>
</svg>
