<svg width="236" height="21" viewBox="0 0 236 21" fill="none" xmlns="http://www.w3.org/2000/svg">
<path d="M9.51999 8.23999H14.28V12.16H9.51999V16.92H5.60001V12.16H0.839996V8.23999H5.60001V3.48H9.51999V8.23999ZM15.401 0.399998H30.521V4.32L24.081 20H18.481L25.201 4.32H15.401V0.399998ZM41.144 15.94C44.989 16.22 47.696 16.36 49.264 16.36C49.693 16.36 50.029 16.2387 50.272 15.996C50.533 15.7347 50.664 15.3893 50.664 14.96V12.44C48.853 12.8133 47.266 13 45.904 13H43.944C42.674 13 41.657 12.6173 40.892 11.852C40.126 11.0867 39.744 10.0693 39.744 8.8V5.16C39.744 3.4613 40.173 2.20129 41.032 1.37999C41.89 0.539993 43.234 0.119995 45.064 0.119995H50.384C52.213 0.119995 53.557 0.539993 54.416 1.37999C55.274 2.20129 55.704 3.4613 55.704 5.16V14.96C55.704 16.7893 55.274 18.1333 54.416 18.992C53.557 19.8507 52.213 20.28 50.384 20.28C47.826 20.28 44.746 20.0933 41.144 19.72V15.94ZM47.304 9.08C48.368 9.08 49.488 8.9867 50.664 8.8V5.72C50.664 4.6 50.104 4.04 48.984 4.04H46.464C45.344 4.04 44.784 4.6 44.784 5.72V8.09999C44.784 8.37999 44.877 8.6133 45.064 8.8C45.25 8.9867 45.484 9.08 45.764 9.08H47.304ZM67.74 20.28C64.623 20.28 61.17 20.0933 57.38 19.72V15.94C61.506 16.22 64.586 16.36 66.62 16.36C67.05 16.36 67.386 16.2387 67.628 15.996C67.89 15.7347 68.02 15.3893 68.02 14.96V13.56C68.02 12.44 67.46 11.88 66.34 11.88H58.22V0.399998H71.66V4.32H63.26V7.96H67.74C69.57 7.96 70.914 8.38 71.772 9.22C72.631 10.0413 73.06 11.3013 73.06 13V14.96C73.06 16.7893 72.631 18.1333 71.772 18.992C70.914 19.8507 69.57 20.28 67.74 20.28ZM77.382 20V4.73999L74.162 5.86L72.762 2.64L77.942 0.399998H82.422V20H77.382ZM97.124 20V4.73999L93.904 5.86L92.504 2.64L97.684 0.399998H102.164V20H97.124ZM114.772 20.28C111.654 20.28 108.201 20.0933 104.412 19.72V15.94C108.537 16.22 111.617 16.36 113.652 16.36C114.081 16.36 114.417 16.2387 114.66 15.996C114.921 15.7347 115.052 15.3893 115.052 14.96V13.84C115.052 12.72 114.492 12.16 113.372 12.16H107.492V8.23999H112.812C113.932 8.23999 114.492 7.67999 114.492 6.55999V6C114.492 4.88 113.932 4.32 112.812 4.32H104.692V0.399998H114.212C116.041 0.399998 117.385 0.82 118.244 1.66C119.102 2.4813 119.532 3.7413 119.532 5.44C119.532 6.56 119.27 7.47469 118.748 8.18399C118.244 8.87469 117.572 9.36 116.732 9.64C118.244 10.0507 119.27 11.0587 119.812 12.664C119.998 13.2427 120.092 13.9147 120.092 14.68V14.96C120.092 16.7893 119.662 18.1333 118.804 18.992C117.945 19.8507 116.601 20.28 114.772 20.28ZM133.541 5.72C133.541 4.6 132.981 4.04 131.861 4.04H128.781C127.661 4.04 127.101 4.6 127.101 5.72V14.68C127.101 15.8 127.661 16.36 128.781 16.36H131.861C132.981 16.36 133.541 15.8 133.541 14.68V5.72ZM138.581 14.68C138.581 16.64 138.133 18.068 137.237 18.964C136.36 19.8413 134.941 20.28 132.981 20.28H127.661C125.701 20.28 124.273 19.8413 123.377 18.964C122.5 18.068 122.061 16.64 122.061 14.68V5.72C122.061 3.76 122.5 2.34129 123.377 1.46399C124.273 0.567993 125.701 0.119995 127.661 0.119995H132.981C134.941 0.119995 136.36 0.567993 137.237 1.46399C138.133 2.34129 138.581 3.76 138.581 5.72V14.68ZM140.539 12.16V8.23999H152.019V12.16H140.539ZM165.452 5.72C165.452 4.6 164.892 4.04 163.772 4.04H160.692C159.572 4.04 159.012 4.6 159.012 5.72V14.68C159.012 15.8 159.572 16.36 160.692 16.36H163.772C164.892 16.36 165.452 15.8 165.452 14.68V5.72ZM170.492 14.68C170.492 16.64 170.044 18.068 169.148 18.964C168.27 19.8413 166.852 20.28 164.892 20.28H159.572C157.612 20.28 156.184 19.8413 155.288 18.964C154.41 18.068 153.972 16.64 153.972 14.68V5.72C153.972 3.76 154.41 2.34129 155.288 1.46399C156.184 0.567993 157.612 0.119995 159.572 0.119995H164.892C166.852 0.119995 168.27 0.567993 169.148 1.46399C170.044 2.34129 170.492 3.76 170.492 5.72V14.68ZM184.209 5.72C184.209 4.6 183.649 4.04 182.529 4.04H179.449C178.329 4.04 177.769 4.6 177.769 5.72V14.68C177.769 15.8 178.329 16.36 179.449 16.36H182.529C183.649 16.36 184.209 15.8 184.209 14.68V5.72ZM189.249 14.68C189.249 16.64 188.801 18.068 187.905 18.964C187.028 19.8413 185.609 20.28 183.649 20.28H178.329C176.369 20.28 174.941 19.8413 174.045 18.964C173.168 18.068 172.729 16.64 172.729 14.68V5.72C172.729 3.76 173.168 2.34129 174.045 1.46399C174.941 0.567993 176.369 0.119995 178.329 0.119995H183.649C185.609 0.119995 187.028 0.567993 187.905 1.46399C188.801 2.34129 189.249 3.76 189.249 5.72V14.68ZM191.207 12.16V8.23999H202.687V12.16H191.207ZM218.352 6.55999C218.352 8.14669 217.68 9.5187 216.336 10.676C215.925 11.0307 215.477 11.3853 214.992 11.74L208.972 16.08H218.352V20H203.232V14.68L213.312 7.4V6C213.312 4.88 212.752 4.32 211.632 4.32H203.792V0.399998H212.752C214.712 0.399998 216.131 0.847999 217.008 1.744C217.904 2.6213 218.352 4.04 218.352 6V6.55999ZM228.986 16.08H218.626V12.16L225.346 0.399998H230.946L224.226 12.16H228.986V7.96H234.026V12.16H235.986V16.08H234.026V20H228.986V16.08Z" fill="#373334"/>
</svg>
