<svg width="200" height="200" viewBox="0 0 200 200" fill="none" xmlns="http://www.w3.org/2000/svg">
<path d="M200 0H0V200H200V0Z" fill="#FF8500"/>
<path d="M89.6 91.52C89.6 89.6 88.64 88.6399 86.72 88.6399H81.44C79.52 88.6399 78.56 89.6 78.56 91.52V106.88C78.56 108.8 79.52 109.76 81.44 109.76H86.72C88.64 109.76 89.6 108.8 89.6 106.88V91.52ZM98.24 106.88C98.24 110.24 97.472 112.69 95.936 114.22C94.432 115.73 92 116.48 88.64 116.48H79.52C76.16 116.48 73.712 115.73 72.176 114.22C70.672 112.69 69.92 110.24 69.92 106.88V91.52C69.92 88.16 70.672 85.73 72.176 84.22C73.712 82.69 76.16 81.9199 79.52 81.9199H88.64C92 81.9199 94.432 82.69 95.936 84.22C97.472 85.73 98.24 88.16 98.24 91.52V106.88ZM118.876 109.28H101.116V102.56L112.636 82.3999H122.236L110.716 102.56H118.876V95.3601H127.516V102.56H130.876V109.28H127.516V116H118.876V109.28Z" fill="white"/>
</svg>
