<svg width="200" height="200" viewBox="0 0 200 200" fill="none" xmlns="http://www.w3.org/2000/svg">
<path d="M200 0H0V200H200V0Z" fill="#FF8500"/>
<path d="M91.6 91.52C91.6 89.6 90.64 88.6399 88.72 88.6399H83.44C81.52 88.6399 80.56 89.6 80.56 91.52V106.88C80.56 108.8 81.52 109.76 83.44 109.76H88.72C90.64 109.76 91.6 108.8 91.6 106.88V91.52ZM100.24 106.88C100.24 110.24 99.472 112.69 97.936 114.22C96.432 115.73 94 116.48 90.64 116.48H81.52C78.16 116.48 75.712 115.73 74.176 114.22C72.672 112.69 71.92 110.24 71.92 106.88V91.52C71.92 88.16 72.672 85.73 74.176 84.22C75.712 82.69 78.16 81.9199 81.52 81.9199H90.64C94 81.9199 96.432 82.69 97.936 84.22C99.472 85.73 100.24 88.16 100.24 91.52V106.88ZM129.036 92.96C129.036 95.68 127.884 98.03 125.58 100.02C124.876 100.62 124.108 101.23 123.276 101.84L112.956 109.28H129.036V116H103.116V106.88L120.396 94.3999V92C120.396 90.08 119.436 89.1201 117.516 89.1201H104.076V82.3999H119.436C122.796 82.3999 125.228 83.17 126.732 84.7C128.268 86.21 129.036 88.64 129.036 92V92.96Z" fill="white"/>
</svg>
