<svg width="200" height="200" viewBox="0 0 200 200" fill="none" xmlns="http://www.w3.org/2000/svg">
<path d="M200 0H0V200H200V0Z" fill="#FF8500"/>
<path d="M95.6 91.52C95.6 89.6 94.64 88.6399 92.72 88.6399H87.44C85.52 88.6399 84.56 89.6 84.56 91.52V106.88C84.56 108.8 85.52 109.76 87.44 109.76H92.72C94.64 109.76 95.6 108.8 95.6 106.88V91.52ZM104.24 106.88C104.24 110.24 103.472 112.69 101.936 114.22C100.432 115.73 98 116.48 94.64 116.48H85.52C82.16 116.48 79.712 115.73 78.176 114.22C76.672 112.69 75.92 110.24 75.92 106.88V91.52C75.92 88.16 76.672 85.73 78.176 84.22C79.712 82.69 82.16 81.9199 85.52 81.9199H94.64C98 81.9199 100.432 82.69 101.936 84.22C103.472 85.73 104.24 88.16 104.24 91.52V106.88ZM114.076 116V89.8401L108.556 91.76L106.156 86.24L115.036 82.3999H122.716V116H114.076Z" fill="white"/>
</svg>
