<svg width="200" height="200" viewBox="0 0 200 200" fill="none" xmlns="http://www.w3.org/2000/svg">
<path d="M200 0H0V200H200V0Z" fill="#FF8500"/>
<path d="M90.6 91.52C90.6 89.6 89.64 88.6399 87.72 88.6399H82.44C80.52 88.6399 79.56 89.6 79.56 91.52V106.88C79.56 108.8 80.52 109.76 82.44 109.76H87.72C89.64 109.76 90.6 108.8 90.6 106.88V91.52ZM99.24 106.88C99.24 110.24 98.472 112.69 96.936 114.22C95.432 115.73 93 116.48 89.64 116.48H80.52C77.16 116.48 74.712 115.73 73.176 114.22C71.672 112.69 70.92 110.24 70.92 106.88V91.52C70.92 88.16 71.672 85.73 73.176 84.22C74.712 82.69 77.16 81.9199 80.52 81.9199H89.64C93 81.9199 95.432 82.69 96.936 84.22C98.472 85.73 99.24 88.16 99.24 91.52V106.88ZM119.876 116.48C114.532 116.48 108.612 116.16 102.116 115.52V109.04C109.188 109.52 114.468 109.76 117.956 109.76C118.692 109.76 119.268 109.55 119.684 109.14C120.132 108.69 120.356 108.1 120.356 107.36V105.44C120.356 103.52 119.396 102.56 117.476 102.56H107.396V95.8401H116.516C118.436 95.8401 119.396 94.88 119.396 92.96V92C119.396 90.08 118.436 89.1201 116.516 89.1201H102.596V82.3999H118.916C122.052 82.3999 124.356 83.1201 125.828 84.5601C127.3 85.9701 128.036 88.13 128.036 91.04C128.036 92.96 127.588 94.53 126.692 95.74C125.828 96.93 124.676 97.76 123.236 98.24C125.828 98.94 127.588 100.67 128.516 103.42C128.836 104.42 128.996 105.57 128.996 106.88V107.36C128.996 110.5 128.26 112.8 126.788 114.27C125.316 115.74 123.012 116.48 119.876 116.48Z" fill="white"/>
</svg>
