<svg width="311" height="72" viewBox="0 0 311 72" fill="none" xmlns="http://www.w3.org/2000/svg">
<path d="M311 0H0V72H311V0Z" fill="#373334"/>
<path d="M311 0H240V72H311V0Z" fill="#FF8500"/>
<path d="M287.971 36.108C287.947 36.042 287.908 35.943 287.878 35.888C287.851 35.834 283.643 31.594 278.527 26.464C270.638 18.55 269.204 17.124 269.077 17.07C268.867 16.977 268.536 16.977 268.322 17.07C268.196 17.127 267.76 17.552 265.643 19.677C262.831 22.501 263.002 22.302 263.002 22.73C263.002 22.908 263.017 22.971 263.092 23.116C263.167 23.257 264.07 24.177 268.416 28.538C271.294 31.425 274.217 34.36 274.912 35.06L276.175 36.334L269.721 42.805C262.551 49.996 263.128 49.381 263.128 49.809C263.128 50.222 262.999 50.071 265.808 52.883C267.82 54.897 268.355 55.418 268.476 55.475C268.68 55.575 269.011 55.575 269.228 55.478C269.357 55.421 270.777 54.011 278.617 46.15C286.44 38.312 287.869 36.868 287.923 36.744C288.001 36.56 288.025 36.271 287.971 36.108Z" fill="black"/>
</svg>
