<svg width="106" height="20" viewBox="0 0 106 20" fill="none" xmlns="http://www.w3.org/2000/svg">
<path d="M0.200012 5H8.20001C9.50701 5 10.467 5.30002 11.08 5.90002C11.693 6.49002 12 7.38998 12 8.59998C12 9.39998 11.827 10.0501 11.48 10.5601C11.133 11.0501 10.707 11.4 10.2 11.6C11.28 11.89 12.013 12.61 12.4 13.76C12.533 14.17 12.6 14.65 12.6 15.2C12.6 16.51 12.293 17.47 11.68 18.08C11.067 18.69 10.107 19 8.80002 19H0.200012V5ZM9.00002 14.6C9.00002 13.8 8.60002 13.4 7.80002 13.4H3.80002V16.2H7.80002C8.60002 16.2 9.00002 15.8 9.00002 15V14.6ZM8.40001 9C8.40001 8.2 8.00001 7.80005 7.20001 7.80005H3.80002V10.6H7.20001C8.00001 10.6 8.40001 10.2 8.40001 9.40002V9ZM25.199 18.8C22.226 19.07 19.759 19.2 17.799 19.2C16.493 19.2 15.533 18.89 14.919 18.28C14.306 17.67 13.999 16.71 13.999 15.4V9C13.999 7.6 14.313 6.58996 14.939 5.95996C15.579 5.31996 16.599 5 17.999 5H25.199V7.80005H18.799C17.999 7.80005 17.599 8.2 17.599 9V15.4C17.599 15.71 17.686 15.95 17.859 16.14C18.046 16.31 18.279 16.4 18.559 16.4C18.839 16.4 19.146 16.4 19.479 16.4C19.813 16.39 20.159 16.37 20.519 16.36C20.879 16.35 21.239 16.3299 21.599 16.3199C21.973 16.3099 22.446 16.28 23.019 16.24C23.606 16.2 24.333 16.15 25.199 16.1V18.8ZM37.902 19H26.802V5H37.902V7.80005H30.402V10.5H36.302V13.3H30.402V16.2H37.902V19ZM54.493 8.80005C54.493 8.00005 54.093 7.59998 53.293 7.59998H49.893C49.093 7.59998 48.693 8.00005 48.693 8.80005V15.2C48.693 16 49.093 16.4 49.893 16.4H53.293C54.093 16.4 54.493 16 54.493 15.2V8.80005ZM58.093 15.2C58.093 16.6 57.773 17.62 57.133 18.26C56.506 18.89 55.493 19.2 54.093 19.2H49.093C47.693 19.2 46.673 18.89 46.033 18.26C45.406 17.62 45.093 16.6 45.093 15.2V8.80005C45.093 7.40005 45.406 6.39001 46.033 5.76001C46.673 5.12001 47.693 4.80005 49.093 4.80005H54.093C55.493 4.80005 56.506 5.12001 57.133 5.76001C57.773 6.39001 58.093 7.40005 58.093 8.80005V15.2ZM78.298 19H74.698V13.3H69.698V19H66.098V5H69.698V10.5H74.698V5H78.298V19ZM91.808 19H80.708V5H91.808V7.80005H84.308V10.5H90.208V13.3H84.308V16.2H91.808V19ZM102.003 19V10.4L97.203 19H93.403V5H97.003V13.6L101.803 5H105.603V19H102.003ZM98.403 4C96.67 4 95.803 3.13002 95.803 1.40002V0.800049H98.403V1.30005C98.403 1.50005 98.47 1.67005 98.603 1.80005C98.736 1.93005 98.903 2 99.103 2H99.703C99.903 2 100.07 1.93005 100.203 1.80005C100.336 1.67005 100.403 1.50005 100.403 1.30005V0.800049H103.003V1.40002C103.003 3.13002 102.136 4 100.403 4H98.403Z" fill="white"/>
</svg>
