<svg width="131" height="41" viewBox="0 0 131 41" fill="none" xmlns="http://www.w3.org/2000/svg">
<path d="M131 0H0V41H131V0Z" fill="#FF8500"/>
<path d="M37.78 23.1C41.433 23.3 43.907 23.4001 45.2 23.4001C45.507 23.4001 45.747 23.3101 45.92 23.1401C46.107 22.9501 46.2 22.7101 46.2 22.4001V20.6H41.6C40.2 20.6 39.18 20.2901 38.54 19.6601C37.913 19.0201 37.6 18 37.6 16.6V16.0001C37.6 14.6001 37.913 13.5901 38.54 12.9601C39.18 12.3201 40.2 12.0001 41.6 12.0001H48.62V14.8H42.4C41.6 14.8 41.2 15.2001 41.2 16.0001V16.4001C41.2 17.2001 41.6 17.6 42.4 17.6H46C47.307 17.6 48.267 17.9101 48.88 18.5201C49.493 19.1301 49.8 20.0901 49.8 21.4001V22.4001C49.8 23.7101 49.493 24.6701 48.88 25.2801C48.267 25.8901 47.307 26.2 46 26.2C45.32 26.2 44.6 26.1901 43.84 26.1601L42 26.08C40.64 26.01 39.233 25.9201 37.78 25.8001V23.1ZM53.708 26.0001H49.808L55.108 12.0001H59.108L64.408 26.0001H60.508L59.608 23.5001H54.608L53.708 26.0001ZM55.508 20.9001H58.708L57.108 16.2001L55.508 20.9001ZM69.007 23.2H76.307V26.0001H65.407V12.0001H69.007V23.2ZM88.812 26.0001H77.712V12.0001H88.812V14.8H81.312V17.5001H87.212V20.3001H81.312V23.2H88.812V26.0001ZM90.207 23.0001H93.807V26.0001H90.207V23.0001ZM90.607 21.8001L90.207 17.6V12.0001H93.807V17.6L93.407 21.8001H90.607Z" fill="white"/>
</svg>
