<svg width="20" height="20" viewBox="0 0 20 20" fill="none" xmlns="http://www.w3.org/2000/svg">
<path d="M10.02 0.180054C9.98399 0.280054 9.75499 0.930005 9.51099 1.63C8.94499 3.22001 8.02202 5.84003 7.77802 6.53003C7.67502 6.82003 7.58101 7.07999 7.57001 7.10999L7.551 7.16003L7.00602 7.18005C6.70602 7.19005 5.54299 7.23002 4.42099 7.27002C3.29899 7.31002 2.188 7.33998 1.952 7.34998C1.716 7.35998 1.18501 7.38001 0.772007 7.39001C0.0640067 7.42001 -0.00399645 7.41996 3.54876e-06 7.45996C3.54876e-06 7.46996 1.28499 8.52995 2.85199 9.81995C4.42099 11.1199 5.70701 12.1799 5.71201 12.1899C5.71701 12.1999 5.25101 13.9 4.67701 15.97C4.10401 18.05 3.63501 19.76 3.63401 19.77C3.62901 19.84 3.405 20 8.969 16.11C9.369 15.83 9.70499 15.6 9.71399 15.59C9.73299 15.58 10.556 16.16 15.121 19.4C15.579 19.72 15.959 19.99 15.965 20C16.034 20.04 16.012 19.9501 15.032 16.3101C14.224 13.3001 14.049 12.63 14.066 12.61C14.087 12.6 15.077 11.79 18.356 9.12C19.261 8.38 20 7.78002 20 7.77002C20.003 7.74002 19.933 7.72996 19.337 7.70996C17.864 7.64996 14.398 7.49995 13.282 7.44995C12.968 7.43995 12.707 7.42004 12.702 7.42004C12.697 7.41004 12.541 6.97005 12.355 6.43005C12.024 5.47005 11.463 3.85004 10.581 1.29004C10.244 0.320039 10.128 0 10.109 0C10.092 0 10.066 0.0500537 10.02 0.180054Z" fill="#FF8500"/>
</svg>
